<?xml version="1.0" standalone="no"?>
<!DOCTYPE svg PUBLIC "-//W3C//DTD SVG 20010904//EN"
 "http://www.w3.org/TR/2001/REC-SVG-20010904/DTD/svg10.dtd">
<svg version="1.0" xmlns="http://www.w3.org/2000/svg"
 width="576.000000pt" height="576.000000pt" viewBox="0 0 576.000000 576.000000"
 preserveAspectRatio="xMidYMid meet">
<metadata>
Created by potrace 1.14, written by Peter Selinger 2001-2017
</metadata>
<g transform="translate(0.000000,576.000000) scale(0.100000,-0.100000)"
fill="#000000" stroke="none">
<path d="M1948 5755 c-3 -3 -23 -6 -44 -7 -21 -1 -33 -3 -26 -6 6 -2 12 -8 12
-13 0 -6 -4 -7 -10 -4 -5 3 -10 1 -10 -6 0 -7 -3 -10 -6 -6 -3 3 -17 -6 -31
-21 -23 -26 -24 -26 -20 -4 3 12 1 20 -4 16 -5 -3 -9 -14 -9 -24 0 -22 -48
-63 -63 -53 -5 3 -7 2 -4 -4 4 -6 -13 -25 -36 -44 -47 -38 -66 -54 -105 -86
-15 -13 -31 -23 -35 -23 -5 0 -5 -5 -1 -11 4 -7 1 -10 -6 -7 -8 2 -29 -13 -48
-34 -19 -21 -40 -38 -48 -38 -7 0 -18 -9 -24 -20 -6 -11 -15 -20 -20 -20 -5 0
-20 -10 -34 -22 -50 -47 -56 -50 -70 -39 -9 8 -13 7 -13 -4 0 -8 4 -12 9 -9 4
3 8 1 8 -4 0 -16 -33 -24 -42 -10 -4 7 -8 8 -8 3 0 -6 6 -17 13 -24 10 -10 8
-11 -8 -5 -11 4 -17 4 -13 -1 8 -8 -1 -18 -54 -58 -21 -15 -38 -24 -39 -20 0
4 -5 -3 -10 -16 -6 -15 -14 -21 -25 -17 -10 4 -13 2 -8 -6 5 -8 2 -9 -11 -4
-14 5 -16 4 -6 -8 9 -11 8 -15 -5 -20 -9 -3 -20 -4 -24 -1 -5 3 -12 0 -16 -6
-4 -8 -3 -9 4 -5 7 4 12 4 12 1 0 -10 -63 -60 -72 -58 -4 2 -8 -3 -8 -10 0 -7
-9 -23 -19 -34 -11 -12 -17 -24 -14 -27 4 -3 -1 -6 -9 -6 -12 0 -14 -6 -10
-22 3 -13 1 -19 -5 -15 -6 4 -8 -3 -5 -18 2 -14 -2 -33 -9 -42 -8 -10 -9 -14
-2 -10 9 6 12 -17 11 -88 0 -68 -3 -93 -12 -88 -7 5 -7 2 1 -8 14 -17 16 -122
2 -113 -5 3 -9 0 -9 -5 0 -6 4 -11 9 -11 5 0 9 -34 9 -75 0 -41 -3 -73 -7 -70
-4 2 -8 -2 -8 -10 0 -8 3 -12 7 -10 4 2 7 -12 8 -31 1 -20 -3 -32 -8 -29 -6 3
-10 1 -10 -4 0 -6 4 -11 9 -11 4 0 9 -25 10 -56 1 -42 -2 -53 -12 -48 -9 6 -9
4 -1 -7 14 -19 18 -83 4 -74 -5 3 -10 1 -10 -4 0 -6 5 -11 10 -11 16 0 11 -42
-7 -64 -17 -20 -17 -20 0 -7 15 12 17 11 17 -3 0 -9 -6 -16 -12 -16 -10 0 -10
-2 -1 -8 16 -10 15 -121 -1 -141 -8 -11 -8 -13 1 -8 8 5 16 -6 24 -33 15 -49
56 -87 104 -96 19 -3 33 -10 30 -14 -3 -5 -1 -12 5 -15 6 -4 9 -1 8 7 -2 10
22 13 110 14 61 1 112 -3 112 -7 0 -5 5 -9 11 -9 5 0 8 4 5 9 -3 5 10 9 29 9
19 0 35 -4 35 -9 0 -5 5 -9 11 -9 5 0 7 5 4 10 -8 13 33 9 54 -4 9 -6 12 -5 8
1 -9 15 215 13 225 -1 5 -8 8 -8 8 0 0 8 23 12 65 12 36 0 65 -4 65 -9 0 -5 5
-9 11 -9 5 0 7 5 4 10 -3 6 1 10 10 10 9 0 13 -5 10 -11 -4 -6 3 -5 14 3 18
11 23 11 31 -2 6 -10 10 -11 10 -2 0 6 7 12 15 12 8 0 15 -4 15 -10 0 -5 5
-10 11 -10 5 0 8 4 4 9 -10 17 59 9 73 -8 11 -15 12 -14 6 0 -4 14 2 17 35 16
22 0 38 -5 35 -9 -3 -4 -1 -8 5 -8 5 0 11 6 14 13 3 9 8 8 22 -3 11 -9 16 -10
11 -2 -4 6 -2 12 3 12 6 0 11 -6 11 -12 0 -9 3 -9 9 1 8 13 12 13 27 0 10 -8
15 -9 11 -3 -4 7 2 12 18 12 14 0 22 -4 19 -9 -3 -5 0 -9 5 -9 6 0 11 5 11 10
0 6 7 10 15 10 8 0 15 -7 15 -16 0 -9 -5 -12 -12 -8 -6 4 -8 3 -5 -4 4 -5 15
-9 25 -7 9 2 20 4 25 4 4 1 7 7 7 15 0 10 19 13 79 13 74 -1 79 -2 78 -21 0
-12 -4 -26 -9 -33 -6 -7 -2 -14 12 -18 11 -3 18 -10 15 -15 -3 -4 2 -13 10
-20 9 -7 13 -21 10 -31 -4 -11 1 -21 14 -28 18 -10 19 -8 15 16 -4 22 -3 24
10 14 11 -9 16 -9 22 0 4 7 3 9 -3 6 -6 -4 -18 2 -28 13 -19 21 -7 28 13 8 9
-9 17 -7 33 8 22 19 22 19 10 -3 -9 -18 -9 -22 2 -18 7 3 13 14 14 25 2 22 -7
26 -24 9 -7 -7 -13 -7 -17 -1 -3 6 -1 14 5 18 8 5 9 3 4 -5 -4 -7 4 -5 19 4
29 19 34 27 11 19 -8 -4 -15 -1 -15 6 0 6 4 9 9 6 5 -3 15 2 22 12 13 16 13
16 -6 2 -19 -14 -19 -14 -5 5 13 18 13 19 0 9 -8 -6 -23 -10 -33 -9 -11 2 -15
-1 -10 -8 4 -7 0 -6 -10 1 -21 17 -67 23 -61 8 2 -6 -3 -20 -12 -31 -16 -20
-16 -20 -8 0 3 11 6 27 6 36 0 14 11 16 71 15 40 0 75 -5 79 -11 5 -6 8 -5 8
3 0 10 4 10 16 -2 21 -21 35 -20 27 2 -7 16 -6 16 11 0 9 -10 23 -18 29 -18 7
0 5 6 -5 13 -15 12 -15 14 1 24 15 10 18 8 16 -14 0 -15 -10 -30 -23 -37 -13
-7 -19 -15 -15 -20 4 -4 -1 -4 -11 0 -13 5 -17 4 -12 -4 4 -7 -6 -18 -24 -27
-16 -8 -30 -20 -30 -25 0 -6 -7 -10 -16 -10 -8 0 -13 -4 -10 -9 3 -5 -2 -8
-12 -7 -10 0 -16 -5 -14 -14 2 -8 0 -12 -3 -8 -4 4 -16 -4 -27 -17 -11 -14
-24 -23 -29 -19 -5 3 -12 -2 -15 -10 -3 -9 -10 -16 -15 -16 -5 0 -17 -8 -28
-17 -71 -67 -82 -75 -99 -67 -24 10 -45 14 -37 6 4 -4 12 -7 18 -7 5 0 12 -7
15 -15 3 -8 1 -12 -3 -8 -5 5 -15 -1 -22 -12 -10 -14 -22 -19 -39 -16 -14 3
-22 1 -19 -5 4 -5 11 -6 17 -3 7 5 8 2 4 -5 -5 -7 -14 -10 -22 -7 -7 3 -16 0
-20 -6 -5 -7 -2 -8 6 -3 8 5 11 3 8 -6 -3 -8 -13 -16 -23 -17 -10 -3 -15 0
-11 7 5 7 1 8 -9 4 -13 -4 -14 -8 -4 -14 8 -4 11 -10 9 -12 -3 -2 -32 -24 -65
-48 -33 -24 -70 -54 -83 -67 -12 -13 -29 -21 -37 -18 -9 3 -12 0 -8 -10 5 -14
-12 -20 -20 -6 -2 4 -3 2 -1 -4 1 -6 -6 -18 -17 -28 -22 -19 -33 -21 -23 -4 4
7 3 8 -4 4 -7 -4 -12 -13 -12 -21 0 -22 -31 -27 -47 -8 -13 16 -13 16 -3 -5
11 -23 6 -42 -11 -42 -6 0 -20 -10 -31 -22 -11 -13 -17 -16 -13 -8 4 8 -1 6
-10 -5 -9 -11 -21 -19 -26 -17 -5 1 -9 -3 -9 -8 0 -11 -46 -54 -52 -49 -2 2
-19 -11 -38 -29 -19 -17 -40 -30 -47 -28 -8 3 -10 -1 -6 -11 4 -10 2 -14 -4
-10 -6 4 -13 0 -17 -8 -7 -20 -26 -19 -26 1 0 9 5 12 12 8 7 -4 8 -3 4 5 -11
17 -29 2 -23 -19 5 -20 -47 -65 -63 -55 -6 4 -7 -1 -3 -11 4 -12 3 -15 -5 -10
-7 4 -12 3 -12 -2 0 -5 -28 -31 -62 -58 -152 -119 -150 -117 -160 -103 -7 12
-8 11 -6 -1 1 -8 -6 -25 -17 -37 l-19 -23 -21 20 c-17 16 -22 17 -22 6 0 -8 4
-13 8 -11 4 3 9 -1 12 -9 3 -8 -11 -25 -35 -42 -22 -16 -51 -39 -64 -52 -13
-13 -29 -20 -36 -16 -7 4 -8 3 -4 -4 5 -8 -1 -12 -16 -13 -13 0 -17 -3 -10 -6
10 -4 8 -9 -7 -20 -12 -8 -26 -11 -31 -8 -6 4 -9 1 -8 -6 2 -7 -7 -18 -19 -24
-13 -5 -23 -15 -23 -22 0 -7 -4 -13 -9 -13 -5 0 -8 11 -5 24 2 14 1 27 -3 29
-5 3 -9 -11 -9 -30 -2 -44 -39 -79 -64 -60 -13 10 -13 10 -2 -5 12 -15 11 -21
-7 -44 -12 -15 -21 -33 -21 -41 0 -8 -4 -12 -8 -9 -5 3 -6 -9 -4 -26 3 -22 1
-29 -7 -23 -9 5 -9 1 1 -14 11 -18 10 -23 -7 -36 -20 -15 -20 -15 0 -8 18 6
18 5 6 -10 -11 -14 -11 -17 0 -17 12 0 12 -2 0 -9 -7 -5 -9 -11 -4 -14 14 -9
9 -42 -8 -63 -9 -11 -9 -15 -1 -10 13 8 13 8 16 -46 1 -20 -2 -34 -6 -32 -11
7 -10 -4 2 -27 8 -14 7 -19 -1 -19 -8 0 -7 -5 2 -17 12 -15 12 -16 -5 -10 -16
7 -17 5 -5 -9 15 -19 20 -56 6 -47 -6 4 -8 -1 -4 -11 5 -13 3 -17 -6 -13 -8 3
-14 -1 -14 -8 0 -7 9 -10 21 -8 16 4 17 2 7 -5 -10 -8 -11 -11 -1 -17 10 -6 9
-11 -5 -22 -16 -11 -16 -13 -3 -13 16 0 19 -44 4 -68 -4 -7 -3 -12 2 -12 5 0
8 -10 7 -23 -2 -13 -8 -21 -16 -19 -11 2 -11 -1 1 -10 16 -14 22 -118 7 -118
-4 0 -5 -5 -1 -12 10 -15 11 -157 1 -151 -10 6 -9 -5 3 -28 8 -14 7 -19 -1
-19 -8 0 -7 -5 2 -17 12 -15 12 -16 -5 -10 -16 7 -17 5 -5 -9 14 -18 20 -56 7
-48 -8 5 -4 -27 8 -64 2 -7 -1 -10 -6 -7 -6 3 -10 2 -10 -4 0 -5 4 -12 9 -15
10 -6 8 -57 -3 -74 -4 -7 -3 -12 2 -12 5 0 8 -10 7 -23 -2 -13 -8 -21 -16 -19
-11 2 -11 -1 1 -10 16 -14 22 -118 6 -118 -5 0 -5 -5 0 -12 15 -21 9 -103 -7
-100 -10 1 -9 -2 3 -11 12 -9 14 -18 7 -30 -7 -12 -6 -17 3 -17 10 0 10 -2 -1
-9 -9 -6 -10 -10 -2 -16 9 -5 9 -10 0 -21 -9 -11 -9 -14 1 -14 10 0 10 -3 0
-15 -7 -8 -9 -15 -4 -15 5 0 9 -22 9 -49 0 -27 -3 -47 -7 -44 -10 5 -10 -11
-1 -21 10 -10 11 -46 1 -40 -4 3 -8 1 -8 -5 0 -5 4 -12 8 -15 12 -7 8 -42 -7
-60 -12 -14 -11 -16 3 -10 12 5 16 0 16 -20 0 -14 -6 -26 -12 -26 -10 0 -10
-2 -2 -8 15 -9 21 -43 11 -59 -5 -9 -3 -11 6 -7 8 3 18 -5 25 -20 12 -28 47
-54 77 -59 11 -1 25 -5 30 -8 13 -6 3669 -3 3713 4 31 4 112 52 110 66 -2 21
3 41 10 37 5 -3 8 15 7 39 0 26 3 45 9 45 7 0 6 3 -1 8 -8 5 -9 13 -3 22 5 8
4 22 -2 33 -9 17 -8 19 8 13 18 -6 18 -5 0 9 -11 8 -15 15 -9 15 7 0 8 12 3
35 -4 19 -5 35 -1 35 4 0 4 27 1 59 -5 53 -3 61 15 71 11 6 13 9 4 6 -12 -3
-18 3 -22 20 -5 27 2 31 22 12 10 -11 11 -10 6 5 -4 9 -11 17 -15 17 -4 0 -10
11 -12 25 -5 25 5 34 17 15 8 -13 25 -13 25 1 0 5 -4 8 -9 5 -16 -10 -29 18
-32 72 -3 41 -1 52 11 52 10 0 11 3 4 8 -14 9 -25 52 -14 52 5 0 5 14 0 30 -5
17 -6 30 -2 30 8 0 6 195 -2 216 -3 9 1 14 12 15 14 0 14 2 -3 9 -18 8 -18 9
5 10 16 2 19 4 9 7 -15 4 -33 63 -20 63 4 0 5 20 3 45 -2 25 -1 53 3 63 14 30
13 41 0 36 -10 -4 -11 3 -5 30 5 24 4 34 -3 29 -6 -4 -8 2 -5 15 4 12 2 25 -3
28 -14 8 -11 26 4 18 7 -4 9 -3 4 2 -5 5 -13 9 -18 9 -5 0 -9 4 -8 9 0 5 -3
12 -9 15 -5 3 -14 15 -20 26 -6 11 -12 14 -12 7 0 -7 -4 -11 -10 -7 -5 3 -6
13 -3 21 5 14 3 14 -15 3 -17 -10 -23 -10 -36 0 -13 11 -16 11 -16 0 0 -8 -6
-5 -15 7 -9 11 -14 13 -13 5 4 -18 -65 -19 -87 -1 -13 11 -14 10 -8 -6 6 -16
4 -17 -8 -7 -15 12 -36 12 -56 0 -7 -4 -16 0 -22 10 -6 10 -11 12 -11 6 0 -7
-5 -13 -11 -13 -5 0 -7 5 -3 12 4 6 -3 4 -16 -5 -18 -13 -27 -14 -38 -5 -10 9
-16 8 -23 -3 -8 -12 -10 -12 -18 0 -7 11 -13 12 -23 3 -8 -6 -19 -7 -28 -2 -8
5 -22 4 -33 -2 -11 -5 -17 -6 -14 -1 7 11 -54 10 -71 -1 -6 -3 -13 -2 -17 4
-3 5 -1 10 6 10 7 0 10 3 7 6 -4 3 -18 -2 -32 -11 -29 -19 -35 -10 -8 12 9 8
1 5 -19 -6 -28 -16 -38 -18 -48 -8 -9 9 -14 9 -21 -3 -9 -13 -11 -13 -20 0 -7
11 -12 12 -21 3 -8 -8 -18 -9 -31 -2 -12 6 -25 6 -38 -1 -16 -8 -20 -8 -20 4
0 8 -4 18 -10 21 -6 4 -7 -1 -3 -12 3 -10 3 -15 -2 -11 -4 4 -16 3 -25 -2 -13
-7 -21 -5 -30 5 -7 8 -18 15 -24 15 -6 0 -5 -4 3 -9 8 -5 9 -11 3 -15 -6 -3
-14 -1 -18 5 -4 8 -9 7 -15 -2 -7 -11 -9 -11 -9 -1 0 8 -5 10 -12 6 -8 -5 -9
-2 -5 10 4 10 3 15 -3 11 -6 -3 -10 -13 -10 -21 0 -12 -4 -12 -20 -4 -14 8
-20 8 -20 0 0 -6 -5 -8 -10 -5 -6 4 -7 12 -3 18 4 7 -5 4 -20 -6 -24 -15 -28
-16 -33 -2 -5 13 -9 13 -27 0 -16 -11 -24 -12 -35 -3 -10 9 -16 8 -23 -3 -8
-12 -10 -12 -18 0 -7 11 -13 12 -23 3 -8 -6 -19 -7 -28 -2 -8 5 -22 4 -33 -2
-14 -7 -17 -7 -13 1 6 10 -32 7 -71 -5 -7 -2 -13 1 -13 7 0 7 -7 8 -17 4 -36
-14 -54 -14 -59 0 -5 12 -8 12 -21 -1 -13 -13 -17 -13 -24 -2 -5 7 -9 9 -9 3
0 -5 -5 -3 -10 5 -8 13 -10 12 -10 -3 0 -14 -4 -16 -18 -8 -11 6 -24 6 -35 0
-11 -7 -17 -7 -17 0 0 10 -25 9 -36 -2 -4 -4 -13 -2 -21 4 -10 9 -17 8 -30 -2
-9 -8 -14 -9 -10 -3 7 12 -70 13 -90 1 -6 -4 -14 -3 -17 1 -6 10 -36 9 -53 -1
-6 -4 -14 -3 -18 3 -4 6 -10 8 -15 5 -4 -3 -11 2 -14 11 -3 8 -10 13 -14 10
-5 -3 -8 13 -7 35 2 61 78 135 101 97 5 -7 1 -9 -13 -6 -12 3 -20 0 -20 -8 0
-8 3 -14 7 -14 3 0 6 -9 7 -19 2 -20 -11 -22 -37 -7 -8 5 -12 6 -8 1 4 -4 2
-15 -5 -23 -7 -10 -8 -13 -1 -9 7 4 17 0 24 -8 10 -12 10 -15 -1 -15 -11 0
-11 -2 1 -10 10 -6 11 -10 3 -10 -7 0 -13 -5 -13 -11 0 -8 5 -8 15 1 8 7 15 9
15 6 0 -4 9 -2 20 4 11 6 17 16 14 22 -5 8 -1 9 10 5 10 -4 20 -7 22 -7 2 0 4
-4 4 -10 0 -5 -3 -9 -7 -9 -21 3 -33 -2 -27 -12 5 -8 9 -8 14 1 4 6 11 12 16
13 5 1 10 14 10 30 2 24 -6 32 -28 28 -4 0 -6 8 -5 19 1 11 6 19 13 16 6 -2
26 9 43 25 17 15 34 28 37 28 2 0 10 2 17 5 6 2 1 3 -12 2 -14 -2 -27 -8 -29
-15 -3 -9 -11 -6 -26 8 -19 18 -25 21 -41 21 -3 0 0 6 7 14 11 11 15 11 26 -5
14 -21 32 -25 32 -8 0 5 -5 7 -12 3 -8 -5 -9 -2 -5 10 4 10 3 15 -3 11 -14 -9
-12 4 3 19 7 7 18 11 26 8 8 -3 11 0 7 6 -3 5 10 22 30 37 36 27 36 27 25 4
-12 -23 -11 -23 3 -5 9 11 16 26 16 33 0 7 5 13 11 13 5 0 7 -4 4 -10 -3 -5
-4 -10 0 -10 3 0 10 11 15 25 7 18 14 23 27 18 10 -3 15 -3 11 2 -9 10 42 51
58 47 7 -1 16 3 20 9 5 8 3 9 -6 4 -9 -6 -11 -4 -6 4 5 7 14 10 22 7 8 -3 13
-2 13 2 -4 21 3 34 14 29 8 -3 20 -1 28 3 8 5 20 4 29 -3 13 -10 13 -10 1 5
-10 14 -18 15 -35 8 -20 -10 -20 -10 -1 2 11 7 34 27 51 43 18 17 37 29 44 27
8 -3 10 0 5 8 -5 8 -4 11 3 6 6 -3 15 1 20 11 9 16 12 16 38 -1 l29 -17 -23
20 -22 19 40 32 c22 17 44 29 50 25 5 -3 18 -1 27 5 15 9 14 10 -7 4 -25 -6
-25 -6 -5 14 11 10 23 18 26 16 4 -2 15 7 25 21 16 22 42 26 29 4 -4 -5 -1 -9
5 -9 7 0 10 7 6 15 -3 8 1 20 9 27 33 30 45 38 45 33 0 -4 12 7 26 24 14 17
29 29 34 26 4 -3 11 2 14 11 4 9 13 14 21 10 8 -3 14 -2 14 2 -3 19 2 25 11
12 8 -13 10 -12 10 3 0 9 5 17 11 17 5 0 7 5 3 12 -5 7 -2 9 9 5 9 -3 18 -1
21 6 3 9 8 8 16 -3 9 -12 10 -11 5 6 -4 16 2 26 22 39 15 10 39 29 53 42 14
13 28 23 32 23 3 0 14 8 24 17 10 10 21 18 26 18 5 0 13 6 17 14 5 8 14 10 22
6 8 -5 11 -5 7 -1 -8 10 23 47 33 40 5 -2 13 5 19 16 6 11 15 20 21 20 6 0 7
-5 3 -12 -4 -7 -3 -8 5 -4 6 4 9 11 6 16 -3 5 18 27 47 50 29 22 63 49 76 60
12 10 22 16 22 12 0 -3 9 4 21 16 11 12 25 19 31 16 6 -4 8 -3 4 4 -3 6 -2 13
4 17 5 3 10 -1 10 -9 0 -8 4 -18 10 -21 6 -3 7 1 4 9 -3 9 -3 24 0 33 6 15 8
15 16 3 6 -9 10 -10 10 -3 0 16 44 63 59 63 6 0 11 -5 11 -11 0 -5 -5 -7 -12
-3 -7 5 -8 3 -3 -6 6 -10 11 -10 20 3 14 20 30 23 19 5 -4 -7 -3 -9 1 -5 5 4
10 14 11 22 2 12 -2 12 -17 5 -12 -7 -19 -7 -19 -1 0 14 36 32 45 23 5 -4 5
-1 1 5 -5 8 3 17 21 25 15 7 39 25 54 41 26 27 46 37 33 15 -4 -7 -3 -8 5 -4
6 4 9 11 6 16 -7 11 67 66 85 61 8 -1 12 0 8 4 -4 4 8 26 27 49 31 38 42 68
44 119 1 12 5 16 14 11 9 -6 9 -5 0 7 -14 18 -13 99 2 99 6 0 6 3 -1 8 -15 10
-15 252 0 252 7 0 7 3 1 8 -17 12 -17 43 1 56 13 10 14 15 4 21 -9 5 -11 4 -6
-3 4 -7 3 -12 -2 -12 -5 0 -9 54 -9 125 0 82 4 125 11 125 7 0 7 3 1 8 -17 12
-17 43 1 56 13 10 14 15 4 21 -9 5 -11 4 -6 -3 4 -7 3 -12 -2 -12 -5 0 -9 54
-9 125 0 82 4 125 11 125 7 0 7 3 1 8 -17 12 -17 43 1 56 13 10 14 15 4 21 -9
5 -11 4 -6 -3 4 -7 3 -12 -2 -12 -14 0 -11 303 3 312 7 5 6 8 -1 8 -8 0 -12
26 -12 78 0 42 -2 89 -5 103 -7 36 -53 104 -83 124 -14 9 -22 20 -19 25 4 6
-3 10 -14 10 -25 0 -38 19 -20 32 10 7 7 7 -8 3 -29 -8 -30 9 -1 29 12 9 18
16 13 16 -5 0 -19 -9 -31 -21 -14 -13 -24 -17 -29 -10 -3 6 0 11 7 11 10 0 10
2 -1 9 -8 5 -21 7 -29 3 -11 -4 -14 -1 -9 12 4 9 3 15 -2 12 -4 -3 -17 3 -28
14 -12 10 -23 17 -26 14 -2 -2 -10 2 -17 11 -11 13 -10 15 6 9 15 -5 16 -4 4
4 -8 6 -18 8 -22 6 -9 -6 -40 21 -32 29 3 2 -7 8 -21 11 -20 5 -25 11 -20 24
4 12 3 14 -5 6 -8 -8 -21 -1 -48 26 -20 21 -40 37 -43 37 -12 -4 -78 60 -71
68 4 5 -1 5 -10 2 -10 -4 -18 -3 -18 1 0 4 -25 25 -55 46 -30 22 -55 43 -55
48 0 4 -5 8 -10 8 -6 0 -22 10 -36 23 -55 49 -63 56 -84 67 -15 8 -19 18 -16
33 3 12 3 16 0 10 -9 -19 -21 -16 -55 14 -28 25 -29 28 -13 40 10 7 13 13 8
13 -6 0 -15 -5 -21 -11 -11 -11 -29 0 -76 46 -11 11 -17 14 -13 8 5 -9 2 -11
-8 -7 -9 3 -14 10 -11 14 3 4 -9 10 -26 14 -38 7 -1873 8 -1881 1z m940 -1617
c-2 -7 3 -12 10 -10 10 2 9 -6 -4 -27 -10 -17 -20 -28 -22 -26 -3 3 1 12 8 20
10 12 10 19 2 27 -15 15 -15 28 -2 28 6 0 9 -6 8 -12z m-20 -26 c2 -7 -1 -12
-8 -12 -6 0 -9 4 -6 9 4 5 1 12 -4 14 -6 3 -5 4 2 3 6 -1 14 -8 16 -14z m-12
-31 c-3 -5 1 -14 8 -21 12 -9 17 -7 26 9 6 12 15 21 21 21 5 0 1 -10 -11 -22
-11 -12 -20 -27 -20 -32 1 -6 10 0 20 13 26 31 26 17 0 -16 -19 -25 -19 -43 1
-43 6 0 8 4 5 8 -2 4 0 14 5 22 7 11 8 9 6 -10 -3 -20 -10 -25 -35 -26 -27 -1
-29 0 -17 13 18 18 19 33 3 29 -7 -1 -10 -1 -5 1 13 8 7 25 -8 20 -8 -4 -17
-1 -21 5 -5 7 -2 8 6 3 9 -5 10 -2 5 14 -4 13 -2 21 5 21 6 0 9 -4 6 -9z m4
-76 c0 -2 -6 -5 -13 -8 -8 -3 -14 1 -14 8 0 7 6 11 14 8 7 -3 13 -6 13 -8z
m35 -39 c19 2 25 0 16 -5 -8 -5 -9 -11 -3 -15 13 -8 9 -39 -5 -43 -6 -2 -14 1
-18 6 -3 6 0 9 8 5 8 -3 14 2 14 11 0 17 -6 19 -27 5 -20 -13 0 -46 26 -43 11
1 13 0 6 -3 -9 -4 -10 -10 -3 -18 6 -8 6 -17 -1 -26 -8 -12 -9 -12 -4 3 7 22
-23 20 -40 -3 -14 -20 -11 -83 5 -88 9 -3 9 -7 1 -17 -6 -8 -17 -11 -25 -9 -7
3 -16 -3 -19 -13 -4 -15 -4 -15 -3 2 2 12 10 19 20 19 23 -2 22 13 -3 28 -11
7 -20 17 -20 22 0 4 7 3 15 -4 15 -12 22 0 8 14 -10 10 -13 36 -4 36 4 0 8 7
8 15 0 8 -5 15 -11 15 -6 0 -4 5 4 10 13 9 13 11 0 20 -9 6 -11 10 -3 10 7 0
17 10 24 22 10 18 8 24 -12 40 -19 15 -20 17 -4 10 11 -5 33 -7 50 -6z m-45
-23 c0 -5 -5 -15 -10 -23 -7 -12 -9 -10 -7 8 1 19 17 33 17 15z m39 -115 c-3
-27 1 -39 12 -32 8 4 8 0 0 -15 -7 -11 -17 -21 -24 -20 -9 0 -9 2 1 6 6 2 12
9 12 14 0 6 -4 8 -9 4 -8 -4 -9 37 -2 53 4 8 12 0 10 -10z m-69 -83 c-6 -8
-13 -26 -14 -40 -4 -36 -16 -44 -14 -9 1 26 23 64 36 64 2 0 -1 -7 -8 -15z
m-480 -64 c0 -6 -4 -13 -10 -16 -5 -3 -10 1 -10 9 0 9 5 16 10 16 6 0 10 -4
10 -9z m275 -31 c7 6 11 3 11 -10 0 -10 -3 -18 -6 -18 -20 2 -30 -4 -30 -17 0
-8 5 -15 12 -15 6 0 8 -3 4 -7 -4 -4 -18 6 -31 22 -13 17 -24 24 -25 18 0 -7
6 -13 13 -13 8 0 8 -3 -2 -9 -13 -8 -13 -12 -1 -28 14 -17 14 -17 -7 0 -23 20
-24 56 -3 82 11 13 15 13 33 0 13 -9 25 -11 32 -5z m-50 -110 c3 -5 1 -10 -4
-10 -6 0 -11 5 -11 10 0 6 2 10 4 10 3 0 8 -4 11 -10z m445 -1838 c0 -2 -8
-15 -19 -28 -20 -26 -23 -69 -3 -69 6 0 12 -4 12 -10 0 -5 -8 -10 -18 -10 -9
0 -16 -6 -14 -13 1 -8 -2 -11 -8 -7 -5 3 -10 1 -10 -6 0 -7 -2 -10 -4 -8 -2 2
-4 7 -3 10 1 4 -6 16 -16 26 -14 16 -14 20 -2 20 8 0 12 -4 9 -9 -3 -4 -1 -8
4 -8 13 0 22 25 17 49 -2 11 3 22 12 25 14 6 14 9 -2 27 -18 19 -18 20 13 17
18 -1 32 -4 32 -6z m20 -18 c0 -3 -6 -12 -14 -19 -17 -17 -30 -7 -15 12 12 13
29 18 29 7z"/>
<path d="M2875 3950 c3 -5 8 -10 11 -10 2 0 4 5 4 10 0 6 -5 10 -11 10 -5 0
-7 -4 -4 -10z"/>
<path d="M2854 3881 c0 -13 7 -19 18 -18 21 1 23 8 6 25 -17 17 -24 15 -24 -7z"/>
<path d="M2555 3649 c-5 -8 -5 -11 0 -7 4 4 13 0 20 -9 10 -13 13 -14 20 -2 5
8 5 11 0 7 -4 -4 -13 0 -20 9 -10 13 -13 14 -20 2z"/>
<path d="M2956 1593 c-6 -14 -5 -15 5 -6 7 7 10 15 7 18 -3 3 -9 -2 -12 -12z"/>
<path d="M3995 5740 c-3 -5 -1 -10 4 -10 6 0 11 5 11 10 0 6 -2 10 -4 10 -3 0
-8 -4 -11 -10z"/>
<path d="M3956 5715 c-9 -26 -7 -32 5 -12 6 10 9 21 6 23 -2 3 -7 -2 -11 -11z"/>
<path d="M1693 5695 c0 -8 4 -12 9 -9 5 3 6 10 3 15 -9 13 -12 11 -12 -6z"/>
<path d="M1719 5673 c-17 -20 -18 -23 -3 -10 11 9 23 15 26 12 2 -3 5 2 5 10
0 19 1 20 -28 -12z"/>
<path d="M4017 5657 c-3 -8 -2 -20 3 -26 5 -9 8 -4 8 13 0 29 -3 32 -11 13z"/>
<path d="M1616 5638 c3 -5 10 -6 15 -3 13 9 11 12 -6 12 -8 0 -12 -4 -9 -9z"/>
<path d="M1573 5625 c0 -8 4 -12 9 -9 5 3 6 10 3 15 -9 13 -12 11 -12 -6z"/>
<path d="M1706 5617 c3 -10 9 -15 12 -12 3 3 0 11 -7 18 -10 9 -11 8 -5 -6z"/>
<path d="M1680 5595 c-7 -9 -11 -17 -9 -20 3 -2 10 5 17 15 14 24 10 26 -8 5z"/>
<path d="M1590 5596 c0 -2 8 -10 18 -17 15 -13 16 -12 3 4 -13 16 -21 21 -21
13z"/>
<path d="M4215 5591 c-3 -5 -2 -12 3 -15 5 -3 9 1 9 9 0 17 -3 19 -12 6z"/>
<path d="M4104 5576 c24 -19 32 -20 42 -4 4 7 3 8 -4 4 -6 -4 -22 -2 -34 4
-22 11 -22 10 -4 -4z"/>
<path d="M1579 5553 c-13 -16 -12 -17 4 -4 9 7 17 15 17 17 0 8 -8 3 -21 -13z"/>
<path d="M1638 5563 c7 -3 16 -2 19 1 4 3 -2 6 -13 5 -11 0 -14 -3 -6 -6z"/>
<path d="M4157 5553 c-10 -9 -9 -23 1 -23 5 0 9 7 9 15 0 17 -1 18 -10 8z"/>
<path d="M1536 5513 c-6 -14 -5 -15 5 -6 7 7 10 15 7 18 -3 3 -9 -2 -12 -12z"/>
<path d="M4175 5519 c-4 -6 -5 -12 -2 -15 2 -3 7 2 10 11 7 17 1 20 -8 4z"/>
<path d="M1565 5500 c-16 -7 -17 -9 -3 -9 9 -1 20 4 23 9 7 11 7 11 -20 0z"/>
<path d="M4190 5505 c0 -5 5 -17 10 -25 5 -8 10 -10 10 -5 0 6 -5 17 -10 25
-5 8 -10 11 -10 5z"/>
<path d="M4250 5486 c0 -2 7 -7 16 -10 8 -3 12 -2 9 4 -6 10 -25 14 -25 6z"/>
<path d="M4296 5473 c-6 -14 -5 -15 5 -6 7 7 10 15 7 18 -3 3 -9 -2 -12 -12z"/>
<path d="M1416 5462 c-3 -5 1 -9 9 -9 8 0 12 4 9 9 -3 4 -7 8 -9 8 -2 0 -6 -4
-9 -8z"/>
<path d="M4226 5458 c3 -4 15 -13 27 -18 20 -10 20 -10 5 3 -10 8 -16 16 -13
19 3 2 -2 5 -10 5 -8 0 -12 -4 -9 -9z"/>
<path d="M4315 5449 c-4 -6 -5 -12 -2 -15 2 -3 7 2 10 11 7 17 1 20 -8 4z"/>
<path d="M1474 5434 c1 -8 6 -17 11 -21 4 -4 5 -2 1 5 -4 6 -2 12 3 12 6 0 11
4 11 8 0 5 -6 9 -14 9 -7 0 -13 -6 -12 -13z"/>
<path d="M4336 5433 c-6 -14 -5 -15 5 -6 7 7 10 15 7 18 -3 3 -9 -2 -12 -12z"/>
<path d="M1430 5425 c0 -13 20 -35 32 -35 4 0 8 5 8 11 0 5 -4 8 -9 4 -6 -3
-14 3 -20 12 -6 10 -11 13 -11 8z"/>
<path d="M1397 5395 c-6 -15 10 -32 20 -21 4 3 1 6 -5 6 -6 0 -9 7 -6 15 4 8
4 15 1 15 -3 0 -7 -7 -10 -15z"/>
<path d="M4355 5400 c3 -5 8 -10 11 -10 2 0 4 5 4 10 0 6 -5 10 -11 10 -5 0
-7 -4 -4 -10z"/>
<path d="M4410 5400 c0 -5 5 -10 11 -10 5 0 7 5 4 10 -3 6 -8 10 -11 10 -2 0
-4 -4 -4 -10z"/>
<path d="M1310 5380 c0 -5 5 -10 11 -10 5 0 7 5 4 10 -3 6 -8 10 -11 10 -2 0
-4 -4 -4 -10z"/>
<path d="M4376 5375 c-9 -26 -7 -32 5 -12 6 10 9 21 6 23 -2 3 -7 -2 -11 -11z"/>
<path d="M1270 5361 c0 -6 4 -13 10 -16 6 -3 7 1 4 9 -7 18 -14 21 -14 7z"/>
<path d="M4395 5360 c-2 -3 5 -7 16 -7 10 -1 19 2 19 6 0 9 -29 10 -35 1z"/>
<path d="M4490 5339 c0 -5 5 -7 10 -4 6 3 10 8 10 11 0 2 -4 4 -10 4 -5 0 -10
-5 -10 -11z"/>
<path d="M1293 5313 c0 -6 5 -9 11 -5 6 4 14 7 18 7 19 0 14 11 -6 11 -12 0
-23 -6 -23 -13z"/>
<path d="M4436 5307 c3 -10 9 -15 12 -12 3 3 0 11 -7 18 -10 9 -11 8 -5 -6z"/>
<path d="M1215 5300 c-3 -5 -1 -10 4 -10 6 0 11 5 11 10 0 6 -2 10 -4 10 -3 0
-8 -4 -11 -10z"/>
<path d="M4484 5295 c-4 -8 -10 -12 -15 -9 -5 3 -6 -3 -2 -12 4 -11 8 -13 11
-6 2 7 7 10 11 8 4 -3 7 4 7 15 0 23 -5 24 -12 4z"/>
<path d="M1225 5260 c-3 -6 1 -7 9 -4 18 7 21 14 7 14 -6 0 -13 -4 -16 -10z"/>
<path d="M4596 5262 c-3 -4 4 -9 15 -9 23 -2 25 3 4 10 -8 4 -16 3 -19 -1z"/>
<path d="M4520 5240 c8 -5 20 -10 25 -10 6 0 3 5 -5 10 -8 5 -19 10 -25 10 -5
0 -3 -5 5 -10z"/>
<path d="M1150 5236 c0 -2 8 -10 18 -17 15 -13 16 -12 3 4 -13 16 -21 21 -21
13z"/>
<path d="M4589 5217 c6 -8 7 -18 3 -22 -4 -5 -1 -5 6 -1 10 6 10 11 1 22 -6 8
-14 14 -16 14 -3 0 0 -6 6 -13z"/>
<path d="M4746 5198 c3 -5 10 -6 15 -3 13 9 11 12 -6 12 -8 0 -12 -4 -9 -9z"/>
<path d="M1195 5190 c-3 -5 -1 -10 4 -10 6 0 11 5 11 10 0 6 -2 10 -4 10 -3 0
-8 -4 -11 -10z"/>
<path d="M1140 5184 c0 -1 6 -7 14 -13 10 -9 15 -8 19 2 3 8 -3 13 -14 13 -11
0 -19 -1 -19 -2z"/>
<path d="M4651 5154 c0 -11 3 -14 6 -6 3 7 2 16 -1 19 -3 4 -6 -2 -5 -13z"/>
<path d="M4680 5160 c-9 -6 -10 -10 -3 -10 6 0 15 5 18 10 8 12 4 12 -15 0z"/>
<path d="M1055 5140 c-3 -5 -1 -10 4 -10 6 0 11 5 11 10 0 6 -2 10 -4 10 -3 0
-8 -4 -11 -10z"/>
<path d="M977 5115 c-4 -8 -3 -16 1 -19 4 -3 9 4 9 15 2 23 -3 25 -10 4z"/>
<path d="M4690 5120 c0 -5 5 -10 10 -10 6 0 10 5 10 10 0 6 -4 10 -10 10 -5 0
-10 -4 -10 -10z"/>
<path d="M975 5060 c-3 -5 -1 -10 4 -10 6 0 11 5 11 10 0 6 -2 10 -4 10 -3 0
-8 -4 -11 -10z"/>
<path d="M1019 5033 c-13 -16 -12 -17 4 -4 9 7 17 15 17 17 0 8 -8 3 -21 -13z"/>
<path d="M956 5018 c3 -5 10 -6 15 -3 13 9 11 12 -6 12 -8 0 -12 -4 -9 -9z"/>
<path d="M913 4995 c0 -8 4 -12 9 -9 5 3 6 10 3 15 -9 13 -12 11 -12 -6z"/>
<path d="M895 4940 c3 -5 8 -10 11 -10 2 0 4 5 4 10 0 6 -5 10 -11 10 -5 0 -7
-4 -4 -10z"/>
<path d="M889 4843 c-13 -16 -12 -17 4 -4 9 7 17 15 17 17 0 8 -8 3 -21 -13z"/>
<path d="M4904 4842 c23 -26 23 -26 23 -7 0 8 -3 13 -5 10 -3 -3 -12 1 -21 7
-10 8 -9 4 3 -10z"/>
<path d="M855 4820 c3 -5 8 -10 11 -10 2 0 4 5 4 10 0 6 -5 10 -11 10 -5 0 -7
-4 -4 -10z"/>
<path d="M880 4780 c-9 -6 -10 -10 -3 -10 6 0 15 5 18 10 8 12 4 12 -15 0z"/>
<path d="M4955 4781 c-3 -5 -2 -12 3 -15 5 -3 9 1 9 9 0 17 -3 19 -12 6z"/>
<path d="M4895 4759 c-4 -6 -4 -13 -1 -16 3 -4 6 -1 6 6 0 7 5 9 12 5 7 -4 8
-3 4 4 -9 15 -13 15 -21 1z"/>
<path d="M875 4720 c-3 -5 -1 -10 4 -10 6 0 11 5 11 10 0 6 -2 10 -4 10 -3 0
-8 -4 -11 -10z"/>
<path d="M869 4683 c-13 -16 -12 -17 4 -4 9 7 17 15 17 17 0 8 -8 3 -21 -13z"/>
<path d="M895 4670 c-3 -6 1 -7 9 -4 18 7 21 14 7 14 -6 0 -13 -4 -16 -10z"/>
<path d="M886 4641 c-3 -5 1 -11 9 -14 9 -4 12 -1 8 9 -6 16 -10 17 -17 5z"/>
<path d="M4895 4620 c-3 -6 1 -7 9 -4 18 7 21 14 7 14 -6 0 -13 -4 -16 -10z"/>
<path d="M911 4594 c0 -11 3 -14 6 -6 3 7 2 16 -1 19 -3 4 -6 -2 -5 -13z"/>
<path d="M4905 4599 c-4 -6 -5 -12 -2 -15 2 -3 7 2 10 11 7 17 1 20 -8 4z"/>
<path d="M4975 4601 c-3 -5 -2 -12 3 -15 5 -3 9 1 9 9 0 17 -3 19 -12 6z"/>
<path d="M4933 4565 c0 -8 4 -15 9 -15 4 0 8 4 8 9 0 6 -4 12 -8 15 -5 3 -9
-1 -9 -9z"/>
<path d="M4895 4539 c-4 -6 -4 -13 -1 -16 3 -4 6 0 6 7 0 9 7 7 23 -6 l22 -19
-19 23 c-22 25 -23 26 -31 11z"/>
<path d="M4950 4519 c0 -5 5 -7 10 -4 6 3 10 8 10 11 0 2 -4 4 -10 4 -5 0 -10
-5 -10 -11z"/>
<path d="M4897 4503 c-10 -9 -9 -41 2 -47 4 -3 6 6 3 21 -4 19 -2 24 8 18 9
-5 11 -4 6 3 -8 14 -10 14 -19 5z"/>
<path d="M845 4479 c-3 -4 2 -6 10 -5 21 3 28 13 10 13 -9 0 -18 -4 -20 -8z"/>
<path d="M4910 4476 c0 -2 8 -10 18 -17 15 -13 16 -12 3 4 -13 16 -21 21 -21
13z"/>
<path d="M897 4449 c7 -7 15 -10 18 -7 3 3 -2 9 -12 12 -14 6 -15 5 -6 -5z"/>
<path d="M4973 4429 c-2 -23 3 -25 10 -4 4 8 3 16 -1 19 -4 3 -9 -4 -9 -15z"/>
<path d="M4891 4433 c-2 -20 16 -24 30 -5 13 15 12 16 -3 4 -13 -10 -17 -10
-21 0 -4 9 -6 9 -6 1z"/>
<path d="M4914 4355 c-4 -8 -11 -12 -18 -8 -6 3 -8 2 -3 -2 4 -5 16 -9 27 -10
14 -1 17 2 10 10 -5 7 -7 15 -3 18 3 4 3 7 -1 7 -3 0 -9 -7 -12 -15z"/>
<path d="M4950 4317 c0 -2 6 -10 14 -16 11 -9 16 -9 22 1 4 7 4 10 -1 6 -4 -4
-14 -3 -22 3 -7 6 -13 9 -13 6z"/>
<path d="M855 4299 c-3 -4 2 -6 10 -5 21 3 28 13 10 13 -9 0 -18 -4 -20 -8z"/>
<path d="M4896 4275 c4 -8 8 -15 10 -15 2 0 4 7 4 15 0 8 -4 15 -10 15 -5 0
-7 -7 -4 -15z"/>
<path d="M874 4236 c4 -10 1 -26 -6 -35 -11 -14 -10 -14 6 0 15 14 16 20 6 35
-11 18 -11 18 -6 0z"/>
<path d="M4895 4239 c-4 -6 -5 -12 -2 -15 2 -3 7 2 10 11 7 17 1 20 -8 4z"/>
<path d="M835 4221 c-3 -5 -2 -12 3 -15 5 -3 9 1 9 9 0 17 -3 19 -12 6z"/>
<path d="M4921 4197 c-6 -6 -11 -16 -11 -21 0 -6 5 -3 10 6 6 10 19 15 32 13
11 -3 18 -1 14 2 -11 12 -34 11 -45 0z"/>
<path d="M4890 4161 c0 -11 4 -22 9 -25 4 -3 6 6 3 19 -5 30 -12 33 -12 6z"/>
<path d="M4910 4156 c0 -2 8 -10 18 -17 15 -13 16 -12 3 4 -13 16 -21 21 -21
13z"/>
<path d="M876 4141 c-3 -5 2 -15 12 -22 15 -12 16 -12 5 2 -7 9 -10 19 -6 22
3 4 4 7 0 7 -3 0 -8 -4 -11 -9z"/>
<path d="M4973 4109 c-2 -23 3 -25 10 -4 4 8 3 16 -1 19 -4 3 -9 -4 -9 -15z"/>
<path d="M4891 4113 c-2 -20 16 -24 30 -5 13 15 12 16 -3 4 -13 -10 -17 -10
-21 0 -4 9 -6 9 -6 1z"/>
<path d="M901 4044 c0 -11 3 -14 6 -6 3 7 2 16 -1 19 -3 4 -6 -2 -5 -13z"/>
<path d="M854 4038 c-3 -5 0 -7 8 -6 7 2 12 -2 11 -8 -1 -6 5 -11 12 -11 10 0
12 4 5 12 -5 7 -8 14 -5 17 3 2 -2 5 -10 5 -9 0 -18 -4 -21 -9z"/>
<path d="M4914 4035 c-4 -8 -11 -12 -18 -8 -6 3 -8 2 -3 -2 4 -5 16 -9 27 -10
14 -1 17 2 10 10 -5 7 -7 15 -3 18 3 4 3 7 -1 7 -3 0 -9 -7 -12 -15z"/>
<path d="M4950 3997 c0 -2 6 -10 14 -16 11 -9 16 -9 22 1 4 7 4 10 -1 6 -4 -4
-14 -3 -22 3 -7 6 -13 9 -13 6z"/>
<path d="M4896 3955 c4 -8 8 -15 10 -15 2 0 4 7 4 15 0 8 -4 15 -10 15 -5 0
-7 -7 -4 -15z"/>
<path d="M855 3940 c-3 -5 -1 -10 4 -10 6 0 11 5 11 10 0 6 -2 10 -4 10 -3 0
-8 -4 -11 -10z"/>
<path d="M4895 3919 c-4 -6 -5 -12 -2 -15 2 -3 7 2 10 11 7 17 1 20 -8 4z"/>
<path d="M874 3876 c1 -8 5 -18 8 -22 4 -3 5 1 4 10 -1 8 -5 18 -8 22 -4 3 -5
-1 -4 -10z"/>
<path d="M4921 3877 c-6 -6 -11 -16 -11 -21 0 -6 5 -3 10 6 6 10 19 15 32 13
11 -3 18 -1 14 2 -11 12 -34 11 -45 0z"/>
<path d="M4890 3841 c0 -11 4 -22 9 -25 4 -3 6 6 3 19 -5 30 -12 33 -12 6z"/>
<path d="M4910 3836 c0 -2 8 -10 18 -17 15 -13 16 -12 3 4 -13 16 -21 21 -21
13z"/>
<path d="M4973 3789 c-2 -23 3 -25 10 -4 4 8 3 16 -1 19 -4 3 -9 -4 -9 -15z"/>
<path d="M4891 3793 c-2 -20 16 -24 30 -5 13 15 12 16 -3 4 -13 -10 -17 -10
-21 0 -4 9 -6 9 -6 1z"/>
<path d="M915 3780 c-3 -5 -1 -10 4 -10 6 0 11 5 11 10 0 6 -2 10 -4 10 -3 0
-8 -4 -11 -10z"/>
<path d="M4914 3715 c-4 -8 -11 -12 -18 -8 -6 3 -8 2 -3 -2 4 -5 16 -9 27 -10
14 -1 17 2 10 10 -5 7 -7 15 -3 18 3 4 3 7 -1 7 -3 0 -9 -7 -12 -15z"/>
<path d="M1546 3663 c-6 -14 -5 -15 5 -6 7 7 10 15 7 18 -3 3 -9 -2 -12 -12z"/>
<path d="M1666 3663 c-6 -14 -5 -15 5 -6 7 7 10 15 7 18 -3 3 -9 -2 -12 -12z"/>
<path d="M2389 3673 c26 -10 49 -36 44 -48 -2 -7 0 -16 6 -20 7 -4 8 1 4 12
-6 16 -5 16 10 4 30 -24 18 -2 -15 29 -18 16 -40 29 -48 29 -12 0 -12 -2 -1
-6z"/>
<path d="M2442 3666 c7 -8 15 -12 17 -11 5 6 -10 25 -20 25 -5 0 -4 -6 3 -14z"/>
<path d="M1157 3648 c19 -21 31 -25 14 -5 -6 8 -9 16 -6 19 3 2 -2 5 -10 5
-13 0 -13 -3 2 -19z"/>
<path d="M1260 3666 c0 -2 11 -6 25 -8 13 -3 22 -1 19 3 -5 9 -44 13 -44 5z"/>
<path d="M1350 3660 c13 -9 8 -14 -12 -11 -9 1 -4 -27 7 -36 4 -4 5 -3 2 3 -6
11 27 45 37 38 3 -2 4 -1 1 3 -3 4 -16 8 -28 10 -17 2 -19 1 -7 -7z"/>
<path d="M1428 3663 c7 -3 16 -2 19 1 4 3 -2 6 -13 5 -11 0 -14 -3 -6 -6z"/>
<path d="M1515 3660 c6 -10 4 -12 -11 -6 -15 6 -17 5 -6 -5 9 -9 15 -10 23 -2
8 8 7 13 -2 18 -8 6 -10 4 -4 -5z"/>
<path d="M1713 3650 c1 -21 10 -18 13 5 1 8 -2 15 -6 15 -5 0 -8 -9 -7 -20z"/>
<path d="M1799 3668 c-6 -21 -6 -39 1 -43 5 -3 7 3 6 12 -2 10 2 21 8 25 8 5
7 8 -1 8 -7 0 -13 -1 -14 -2z"/>
<path d="M1879 3668 c-6 -21 -5 -39 1 -43 5 -3 7 4 5 16 -3 15 0 19 11 15 9
-3 12 -1 9 4 -5 9 -24 14 -26 8z"/>
<path d="M1926 3662 c-3 -5 1 -9 9 -9 8 0 12 4 9 9 -3 4 -7 8 -9 8 -2 0 -6 -4
-9 -8z"/>
<path d="M1990 3661 c13 -9 8 -15 -11 -13 -3 1 -6 -6 -6 -13 0 -10 4 -12 12
-5 7 5 14 7 18 4 3 -3 4 2 3 12 -2 10 -9 20 -17 22 -11 3 -11 1 1 -7z"/>
<path d="M2095 3663 c3 -3 0 -11 -5 -18 -7 -8 -5 -12 4 -12 14 0 16 22 3 32
-4 3 -5 2 -2 -2z"/>
<path d="M2135 3661 c-9 -15 13 -23 32 -11 15 9 14 10 -6 4 -16 -4 -21 -3 -17
5 4 6 5 11 2 11 -3 0 -7 -4 -11 -9z"/>
<path d="M2196 3661 c-3 -4 2 -16 12 -24 16 -15 18 -15 19 6 2 17 0 19 -7 7
-9 -14 -14 -7 -11 13 1 10 -7 9 -13 -2z"/>
<path d="M2674 3659 c-5 -8 -9 -17 -10 -21 -1 -5 -2 -9 -4 -10 -1 -2 -3 -14
-4 -27 -3 -23 -2 -23 11 -5 8 10 16 18 18 17 12 -7 26 -2 20 7 -3 5 7 16 22
24 l28 15 -30 -3 c-16 -2 -33 1 -36 6 -4 6 -10 5 -15 -3z m30 -21 c-3 -4 -15
-13 -27 -18 -20 -10 -21 -10 -4 3 14 11 15 16 5 20 -7 3 -3 4 9 4 12 -1 19 -5
17 -9z"/>
<path d="M4966 3658 c3 -5 10 -6 15 -3 13 9 11 12 -6 12 -8 0 -12 -4 -9 -9z"/>
<path d="M1445 3651 c-11 -5 -23 -7 -26 -5 -3 2 -6 -3 -6 -11 0 -11 4 -12 14
-4 7 6 19 9 26 6 8 -3 14 1 14 9 0 8 -1 14 -1 13 -1 0 -10 -4 -21 -8z"/>
<path d="M1613 3643 c1 -16 4 -19 14 -12 7 6 18 7 24 3 8 -5 9 -3 5 5 -5 7
-14 10 -21 7 -8 -3 -16 0 -18 7 -3 7 -4 2 -4 -10z"/>
<path d="M2470 3650 c0 -5 5 -10 10 -10 6 0 10 5 10 10 0 6 -4 10 -10 10 -5 0
-10 -4 -10 -10z"/>
<path d="M4934 3640 c0 -13 4 -16 10 -10 7 7 7 13 0 20 -6 6 -10 3 -10 -10z"/>
<path d="M1256 3633 c-6 -14 -5 -15 5 -6 7 7 10 15 7 18 -3 3 -9 -2 -12 -12z"/>
<path d="M2053 3635 c0 -8 4 -12 9 -9 4 3 8 9 8 15 0 5 -4 9 -8 9 -5 0 -9 -7
-9 -15z"/>
<path d="M2268 3628 c-10 -10 -14 -18 -9 -18 10 0 36 29 30 34 -2 1 -12 -6
-21 -16z"/>
<path d="M2390 3640 c8 -5 20 -10 25 -10 6 0 3 5 -5 10 -8 5 -19 10 -25 10 -5
0 -3 -5 5 -10z"/>
<path d="M4895 3640 c3 -5 8 -10 11 -10 2 0 4 5 4 10 0 6 -5 10 -11 10 -5 0
-7 -4 -4 -10z"/>
<path d="M1919 3638 c-5 -18 -6 -38 -1 -34 7 8 12 36 6 36 -2 0 -4 -1 -5 -2z"/>
<path d="M2357 3633 c-4 -6 0 -13 8 -17 8 -3 17 0 21 6 4 6 3 8 -4 4 -5 -3
-12 -1 -14 6 -3 8 -6 9 -11 1z"/>
<path d="M2313 3605 c0 -8 4 -15 9 -15 4 0 8 4 8 9 0 6 -4 12 -8 15 -5 3 -9
-1 -9 -9z"/>
<path d="M4896 3603 c-9 -22 5 -35 24 -22 12 9 12 10 -3 5 -15 -5 -17 -2 -12
14 8 24 0 27 -9 3z"/>
<path d="M1865 3600 c-3 -6 1 -7 9 -4 18 7 21 14 7 14 -6 0 -13 -4 -16 -10z"/>
<path d="M2181 3596 c-9 -11 -9 -16 1 -22 7 -4 10 -4 6 1 -4 4 -3 14 3 22 6 7
9 13 6 13 -2 0 -10 -6 -16 -14z"/>
<path d="M2380 3600 c-12 -7 -10 -9 7 -7 12 0 19 5 17 9 -6 10 -6 10 -24 -2z"/>
<path d="M2490 3589 c7 -11 14 -19 16 -16 7 7 -7 37 -17 37 -6 0 -5 -9 1 -21z"/>
<path d="M2460 3591 c0 -7 -5 -9 -12 -5 -7 5 -8 3 -3 -5 5 -9 10 -10 18 -2 6
6 8 14 4 18 -4 3 -7 1 -7 -6z"/>
<path d="M1315 3580 c-3 -5 -1 -10 4 -10 6 0 11 5 11 10 0 6 -2 10 -4 10 -3 0
-8 -4 -11 -10z"/>
<path d="M1955 3580 c-3 -5 -1 -10 4 -10 6 0 11 5 11 10 0 6 -2 10 -4 10 -3 0
-8 -4 -11 -10z"/>
<path d="M2135 3581 c-3 -5 -2 -12 3 -15 5 -3 9 1 9 9 0 17 -3 19 -12 6z"/>
<path d="M2296 3558 c3 -5 10 -6 15 -3 13 9 11 12 -6 12 -8 0 -12 -4 -9 -9z"/>
<path d="M2330 3561 c0 -6 4 -12 8 -15 5 -3 9 1 9 9 0 8 -4 15 -9 15 -4 0 -8
-4 -8 -9z"/>
<path d="M2437 3559 c7 -7 15 -10 18 -7 3 3 -2 9 -12 12 -14 6 -15 5 -6 -5z"/>
<path d="M2473 3548 c-2 -18 0 -20 7 -8 12 18 13 30 2 30 -4 0 -9 -10 -9 -22z"/>
<path d="M2505 3550 c-10 -11 -15 -23 -12 -27 4 -3 7 -1 7 6 0 7 5 9 10 6 6
-4 7 -11 4 -17 -4 -7 -2 -8 4 -4 7 4 12 3 12 -2 0 -16 -13 -22 -27 -11 -9 9
-13 8 -13 0 0 -6 5 -11 11 -11 5 0 7 -5 4 -10 -5 -8 -11 -7 -21 1 -8 7 -14 7
-14 1 0 -20 28 -20 46 -1 10 11 24 17 31 15 7 -3 15 0 19 6 4 6 3 8 -3 5 -5
-4 -19 4 -31 18 -14 16 -17 25 -9 28 7 2 9 7 6 11 -3 3 -14 -3 -24 -14z"/>
<path d="M4922 3558 c-7 -7 -12 -17 -12 -22 0 -6 5 -3 11 7 6 9 15 14 21 11 7
-4 8 -2 4 4 -9 15 -9 15 -24 0z"/>
<path d="M2389 3543 c-13 -16 -12 -17 4 -4 16 13 21 21 13 21 -2 0 -10 -8 -17
-17z"/>
<path d="M2255 3539 c-3 -4 2 -6 10 -5 21 3 28 13 10 13 -9 0 -18 -4 -20 -8z"/>
<path d="M2435 3520 c9 -16 18 -30 21 -30 2 0 -2 14 -11 30 -9 17 -18 30 -21
30 -2 0 2 -13 11 -30z"/>
<path d="M2326 3522 c-3 -5 1 -9 9 -9 8 0 12 4 9 9 -3 4 -7 8 -9 8 -2 0 -6 -4
-9 -8z"/>
<path d="M4901 3517 c2 -1 13 -9 24 -17 19 -14 19 -14 6 3 -7 9 -18 17 -24 17
-6 0 -8 -1 -6 -3z"/>
<path d="M2393 3495 c0 -8 4 -12 9 -9 4 3 8 9 8 15 0 5 -4 9 -8 9 -5 0 -9 -7
-9 -15z"/>
<path d="M4955 3500 c3 -5 8 -10 11 -10 2 0 4 5 4 10 0 6 -5 10 -11 10 -5 0
-7 -4 -4 -10z"/>
<path d="M2260 3480 c-9 -6 -10 -10 -3 -10 6 0 15 5 18 10 8 12 4 12 -15 0z"/>
<path d="M2315 3481 c-3 -5 -2 -12 3 -15 5 -3 9 1 9 9 0 17 -3 19 -12 6z"/>
<path d="M2415 3470 c-4 -6 1 -7 11 -3 12 4 15 3 10 -5 -5 -8 -2 -10 9 -5 13
5 14 7 3 14 -17 11 -26 11 -33 -1z"/>
<path d="M4890 3471 c0 -6 4 -13 10 -16 6 -3 7 1 4 9 -7 18 -14 21 -14 7z"/>
<path d="M2470 3450 c0 -5 5 -10 11 -10 5 0 7 5 4 10 -3 6 -8 10 -11 10 -2 0
-4 -4 -4 -10z"/>
<path d="M2387 3443 c-4 -3 -7 -11 -7 -17 0 -6 5 -4 10 4 9 13 11 13 19 1 10
-16 45 -25 35 -10 -3 5 -9 7 -14 4 -4 -3 -10 2 -14 10 -6 16 -18 19 -29 8z"/>
<path d="M2351 3427 c-8 -10 -7 -14 2 -14 8 0 14 6 14 14 0 7 -1 13 -2 13 -2
0 -8 -6 -14 -13z"/>
<path d="M2255 3400 c3 -5 8 -10 11 -10 2 0 4 5 4 10 0 6 -5 10 -11 10 -5 0
-7 -4 -4 -10z"/>
<path d="M2386 3399 c3 -5 9 -7 14 -4 4 3 11 0 13 -5 3 -6 4 -5 3 1 -1 7 -10
13 -19 15 -9 1 -15 -2 -11 -7z"/>
<path d="M2320 3375 c-7 -8 -16 -13 -20 -10 -5 3 -12 0 -16 -6 -4 -7 -3 -9 4
-5 5 3 12 2 14 -3 1 -5 11 2 21 15 19 26 17 33 -3 9z"/>
<path d="M2335 3359 c-4 -6 -5 -12 -2 -15 2 -3 7 2 10 11 7 17 1 20 -8 4z"/>
<path d="M4945 3360 c-3 -6 1 -7 9 -4 18 7 21 14 7 14 -6 0 -13 -4 -16 -10z"/>
<path d="M2236 3342 c-3 -5 1 -9 9 -9 8 0 12 4 9 9 -3 4 -7 8 -9 8 -2 0 -6 -4
-9 -8z"/>
<path d="M4895 3340 c-4 -6 -1 -9 7 -8 7 2 12 -2 11 -9 -2 -12 23 -12 32 0 3
4 2 5 -2 2 -3 -3 -14 2 -24 11 -11 10 -19 12 -24 4z"/>
<path d="M2175 3300 c3 -5 8 -10 11 -10 2 0 4 5 4 10 0 6 -5 10 -11 10 -5 0
-7 -4 -4 -10z"/>
<path d="M4994 3286 c1 -8 5 -18 8 -22 4 -3 5 1 4 10 -1 8 -5 18 -8 22 -4 3
-5 -1 -4 -10z"/>
<path d="M2200 3280 c-8 -5 -10 -10 -5 -10 6 0 17 5 25 10 8 5 11 10 5 10 -5
0 -17 -5 -25 -10z"/>
<path d="M2173 3233 c4 -3 -1 -12 -11 -20 -15 -13 -15 -13 6 -3 19 9 23 30 5
30 -4 0 -3 -3 0 -7z"/>
<path d="M1986 3202 c-3 -5 1 -9 9 -9 8 0 12 4 9 9 -3 4 -7 8 -9 8 -2 0 -6 -4
-9 -8z"/>
<path d="M2065 3200 c-3 -6 1 -7 9 -4 18 7 21 14 7 14 -6 0 -13 -4 -16 -10z"/>
<path d="M2100 3206 c0 -2 8 -10 18 -17 15 -13 16 -12 3 4 -13 16 -21 21 -21
13z"/>
<path d="M2085 3157 c-15 -12 -16 -15 -4 -22 8 -5 11 -5 7 0 -4 4 0 14 10 21
23 18 11 18 -13 1z"/>
<path d="M4835 3141 c-3 -5 -2 -12 3 -15 5 -3 9 1 9 9 0 17 -3 19 -12 6z"/>
<path d="M1965 3119 c-3 -4 2 -6 10 -5 21 3 28 13 10 13 -9 0 -18 -4 -20 -8z"/>
<path d="M4865 3120 c-3 -6 1 -7 9 -4 18 7 21 14 7 14 -6 0 -13 -4 -16 -10z"/>
<path d="M1953 3086 c0 -17 30 -14 33 3 2 7 0 7 -3 1 -3 -7 -9 -8 -17 -1 -9 8
-13 7 -13 -3z"/>
<path d="M4767 3082 c-20 -22 -21 -32 -5 -32 6 0 8 3 5 7 -4 3 0 15 10 25 9
10 14 18 11 18 -3 0 -12 -8 -21 -18z"/>
<path d="M4810 3059 c0 -5 5 -7 10 -4 6 3 10 8 10 11 0 2 -4 4 -10 4 -5 0 -10
-5 -10 -11z"/>
<path d="M4770 3019 c0 -5 5 -7 10 -4 6 3 10 8 10 11 0 2 -4 4 -10 4 -5 0 -10
-5 -10 -11z"/>
<path d="M1799 3007 c8 -10 16 -15 19 -12 3 3 13 -2 23 -11 13 -12 19 -12 25
-3 4 7 3 10 -4 5 -5 -3 -12 -1 -14 4 -2 6 -10 12 -18 13 -8 2 -22 7 -30 12
-13 8 -13 7 -1 -8z"/>
<path d="M4684 3002 c11 -12 20 -22 20 -22 1 0 2 10 3 23 0 12 -1 16 -4 9 -4
-10 -8 -10 -21 0 -12 9 -11 6 2 -10z"/>
<path d="M1715 2979 c-3 -4 2 -6 10 -5 21 3 28 13 10 13 -9 0 -18 -4 -20 -8z"/>
<path d="M1815 2960 c6 -30 16 -40 12 -12 -2 12 -6 24 -10 28 -3 4 -4 -4 -2
-16z"/>
<path d="M4613 2965 c-3 -9 -3 -18 -1 -21 3 -3 8 4 11 16 6 23 -1 27 -10 5z"/>
<path d="M4715 2941 c-3 -5 -2 -12 3 -15 5 -3 9 1 9 9 0 17 -3 19 -12 6z"/>
<path d="M1796 2913 c-6 -15 -8 -15 -16 -3 -6 9 -10 10 -10 3 0 -19 17 -24 30
-8 7 9 11 18 8 21 -3 3 -9 -3 -12 -13z"/>
<path d="M1715 2900 c-3 -6 1 -13 9 -16 9 -3 13 -11 9 -18 -3 -6 -2 -7 2 -3
16 14 14 36 -3 30 -10 -4 -13 -2 -8 5 4 7 5 12 2 12 -3 0 -8 -5 -11 -10z"/>
<path d="M1693 2865 c0 -8 4 -12 9 -9 5 3 6 10 3 15 -9 13 -12 11 -12 -6z"/>
<path d="M1559 2853 c-12 -16 -12 -17 2 -6 9 7 20 9 24 5 5 -4 5 -1 1 6 -9 16
-11 15 -27 -5z"/>
<path d="M1630 2866 c0 -2 7 -7 16 -10 8 -3 12 -2 9 4 -6 10 -25 14 -25 6z"/>
<path d="M4495 2859 c-3 -5 1 -6 10 -3 11 5 14 2 9 -12 -7 -20 -6 -19 13 6 10
13 8 16 -7 17 -11 1 -22 -2 -25 -8z"/>
<path d="M4475 2820 c-3 -5 -1 -10 4 -10 6 0 11 5 11 10 0 6 -2 10 -4 10 -3 0
-8 -4 -11 -10z"/>
<path d="M1470 2816 c0 -2 8 -10 18 -17 15 -13 16 -12 3 4 -13 16 -21 21 -21
13z"/>
<path d="M1559 2793 c-17 -20 -18 -23 -3 -10 11 9 23 15 26 12 2 -3 5 2 5 10
0 19 1 20 -28 -12z"/>
<path d="M4515 2809 c-4 -6 -5 -12 -2 -15 2 -3 7 2 10 11 7 17 1 20 -8 4z"/>
<path d="M4387 2786 c-4 -10 1 -12 14 -9 23 6 24 9 5 16 -8 3 -17 0 -19 -7z"/>
<path d="M4435 2782 c3 -3 -1 -12 -7 -21 -8 -10 -4 -9 10 3 26 23 26 23 7 23
-8 0 -13 -3 -10 -5z"/>
<path d="M1580 2771 c0 -6 4 -13 10 -16 6 -3 7 1 4 9 -7 18 -14 21 -14 7z"/>
<path d="M4355 2760 c-3 -5 -1 -10 4 -10 6 0 11 5 11 10 0 6 -2 10 -4 10 -3 0
-8 -4 -11 -10z"/>
<path d="M1515 2749 c-4 -6 -5 -12 -2 -15 2 -3 7 2 10 11 7 17 1 20 -8 4z"/>
<path d="M4330 2751 c0 -6 4 -13 10 -16 6 -3 7 1 4 9 -7 18 -14 21 -14 7z"/>
<path d="M4456 2738 c3 -5 10 -6 15 -3 13 9 11 12 -6 12 -8 0 -12 -4 -9 -9z"/>
<path d="M1530 2725 c-7 -9 -11 -17 -9 -20 3 -2 10 5 17 15 14 24 10 26 -8 5z"/>
<path d="M4314 2716 c0 -12 6 -23 13 -23 9 0 10 4 3 12 -5 7 -7 14 -4 17 3 3
1 8 -3 11 -5 3 -9 -5 -9 -17z"/>
<path d="M4371 2727 c-8 -10 -7 -14 2 -14 8 0 14 6 14 14 0 7 -1 13 -2 13 -2
0 -8 -6 -14 -13z"/>
<path d="M1436 2698 c3 -5 10 -6 15 -3 13 9 11 12 -6 12 -8 0 -12 -4 -9 -9z"/>
<path d="M1473 2703 c4 -3 0 -14 -9 -24 -12 -13 -12 -19 -3 -25 7 -4 10 -3 6
3 -4 6 0 16 8 23 18 15 20 30 3 30 -6 0 -8 -3 -5 -7z"/>
<path d="M4251 2697 c-6 -6 -11 -16 -11 -21 0 -6 5 -4 10 6 6 10 18 14 30 11
11 -3 20 -3 20 0 0 11 -39 14 -49 4z"/>
<path d="M4475 2700 c-3 -5 -1 -10 4 -10 6 0 11 5 11 10 0 6 -2 10 -4 10 -3 0
-8 -4 -11 -10z"/>
<path d="M1310 2681 c0 -6 4 -13 10 -16 6 -3 7 1 4 9 -7 18 -14 21 -14 7z"/>
<path d="M1413 2645 c0 -8 4 -12 8 -9 4 2 9 -1 11 -8 3 -7 7 -4 12 7 4 11 4
16 0 12 -4 -4 -12 -2 -19 3 -8 7 -12 5 -12 -5z"/>
<path d="M4256 2647 c3 -10 9 -15 12 -12 3 3 0 11 -7 18 -10 9 -11 8 -5 -6z"/>
<path d="M4219 2633 c-12 -16 -12 -17 2 -6 9 7 20 9 24 5 5 -4 5 -1 1 6 -9 16
-11 15 -27 -5z"/>
<path d="M1359 2638 c-5 -18 -6 -38 -1 -34 7 8 12 36 6 36 -2 0 -4 -1 -5 -2z"/>
<path d="M1316 2618 c3 -5 10 -6 15 -3 13 9 11 12 -6 12 -8 0 -12 -4 -9 -9z"/>
<path d="M4190 2623 c0 -6 8 -17 18 -24 16 -13 16 -13 2 6 -8 11 -16 22 -17
24 -2 2 -3 0 -3 -6z"/>
<path d="M4295 2620 c3 -5 8 -10 11 -10 2 0 4 5 4 10 0 6 -5 10 -11 10 -5 0
-7 -4 -4 -10z"/>
<path d="M1375 2590 c-3 -6 1 -7 9 -4 18 7 21 14 7 14 -6 0 -13 -4 -16 -10z"/>
<path d="M4115 2570 c-3 -6 1 -7 9 -4 18 7 21 14 7 14 -6 0 -13 -4 -16 -10z"/>
<path d="M1304 2555 c-5 -13 -9 -13 -23 -3 -14 12 -15 11 -2 -4 17 -22 18 -22
31 2 6 11 8 20 5 20 -3 0 -8 -7 -11 -15z"/>
<path d="M4065 2524 c-9 -15 -12 -23 -6 -20 11 7 35 46 28 46 -3 0 -12 -12
-22 -26z"/>
<path d="M4108 2543 c6 -2 18 -2 25 0 6 3 1 5 -13 5 -14 0 -19 -2 -12 -5z"/>
<path d="M1194 2529 c-3 -6 -2 -15 3 -20 5 -5 9 -1 9 11 0 23 -2 24 -12 9z"/>
<path d="M1156 2522 c-3 -5 1 -9 9 -9 8 0 12 4 9 9 -3 4 -7 8 -9 8 -2 0 -6 -4
-9 -8z"/>
<path d="M1235 2491 c-3 -6 -14 -8 -24 -6 -10 2 -18 -3 -18 -11 0 -9 4 -11 12
-4 7 5 14 8 17 5 3 -3 11 1 18 10 7 8 10 15 7 15 -3 0 -8 -4 -12 -9z"/>
<path d="M4016 2473 c-6 -14 -5 -15 5 -6 7 7 10 15 7 18 -3 3 -9 -2 -12 -12z"/>
<path d="M3986 2463 c-6 -14 -5 -15 5 -6 7 7 10 15 7 18 -3 3 -9 -2 -12 -12z"/>
<path d="M4050 2459 c0 -5 5 -7 10 -4 6 3 10 8 10 11 0 2 -4 4 -10 4 -5 0 -10
-5 -10 -11z"/>
<path d="M4095 2460 c3 -5 8 -10 11 -10 2 0 4 5 4 10 0 6 -5 10 -11 10 -5 0
-7 -4 -4 -10z"/>
<path d="M1080 2446 c0 -2 8 -10 18 -17 15 -13 16 -12 3 4 -13 16 -21 21 -21
13z"/>
<path d="M1115 2440 c3 -5 8 -10 11 -10 2 0 4 5 4 10 0 6 -5 10 -11 10 -5 0
-7 -4 -4 -10z"/>
<path d="M3999 2433 c-13 -16 -12 -17 4 -4 9 7 17 15 17 17 0 8 -8 3 -21 -13z"/>
<path d="M3953 2416 c1 -5 -3 -10 -10 -11 -17 0 -25 -12 -8 -12 8 0 22 8 30
17 13 14 13 17 1 17 -8 0 -14 -5 -13 -11z"/>
<path d="M1086 2398 c3 -4 9 -8 15 -8 5 0 9 4 9 8 0 5 -7 9 -15 9 -8 0 -12 -4
-9 -9z"/>
<path d="M1060 2386 c0 -2 8 -10 18 -17 15 -13 16 -12 3 4 -13 16 -21 21 -21
13z"/>
<path d="M991 2367 c2 -1 13 -9 24 -17 19 -14 19 -14 6 3 -7 9 -18 17 -24 17
-6 0 -8 -1 -6 -3z"/>
<path d="M1035 2360 c3 -5 8 -10 11 -10 2 0 4 5 4 10 0 6 -5 10 -11 10 -5 0
-7 -4 -4 -10z"/>
<path d="M3856 2353 c-6 -14 -5 -15 5 -6 7 7 10 15 7 18 -3 3 -9 -2 -12 -12z"/>
<path d="M3890 2339 c0 -5 5 -7 10 -4 6 3 10 8 10 11 0 2 -4 4 -10 4 -5 0 -10
-5 -10 -11z"/>
<path d="M3770 2326 c0 -3 9 -10 20 -16 11 -6 20 -8 20 -6 0 3 -9 10 -20 16
-11 6 -20 8 -20 6z"/>
<path d="M3893 2295 c0 -8 4 -12 9 -9 5 3 6 10 3 15 -9 13 -12 11 -12 -6z"/>
<path d="M3740 2285 c0 -2 6 -8 13 -14 10 -8 14 -7 14 2 0 8 -6 14 -14 14 -7
0 -13 -1 -13 -2z"/>
<path d="M3715 2260 c27 -12 43 -12 25 0 -8 5 -22 9 -30 9 -10 0 -8 -3 5 -9z"/>
<path d="M3756 2233 c-6 -14 -5 -15 5 -6 7 7 10 15 7 18 -3 3 -9 -2 -12 -12z"/>
<path d="M894 2200 c0 -13 4 -16 10 -10 7 7 7 13 0 20 -6 6 -10 3 -10 -10z"/>
<path d="M3680 2160 c-9 -6 -10 -10 -3 -10 6 0 15 5 18 10 8 12 4 12 -15 0z"/>
<path d="M3517 2134 c-3 -5 2 -15 12 -21 14 -9 18 -8 18 3 0 7 -4 11 -8 8 -4
-2 -9 1 -11 8 -3 7 -7 8 -11 2z"/>
<path d="M3590 2099 c0 -5 5 -7 10 -4 6 3 10 8 10 11 0 2 -4 4 -10 4 -5 0 -10
-5 -10 -11z"/>
<path d="M3459 2068 c-7 -23 -4 -35 7 -35 9 0 11 4 4 12 -5 7 -7 15 -3 18 3 4
3 7 0 7 -4 0 -7 -1 -8 -2z"/>
<path d="M834 2049 c-3 -6 -2 -15 3 -20 5 -5 9 -1 9 11 0 23 -2 24 -12 9z"/>
<path d="M3415 2051 c-3 -5 -2 -12 3 -15 5 -3 9 1 9 9 0 17 -3 19 -12 6z"/>
<path d="M3395 2021 c-9 -15 15 -25 28 -12 9 9 7 10 -7 5 -13 -5 -17 -4 -12 4
4 7 5 12 2 12 -3 0 -7 -4 -11 -9z"/>
<path d="M825 2000 c-3 -6 1 -7 9 -4 18 7 21 14 7 14 -6 0 -13 -4 -16 -10z"/>
<path d="M3446 1978 c3 -5 10 -6 15 -3 13 9 11 12 -6 12 -8 0 -12 -4 -9 -9z"/>
<path d="M844 1959 c-4 -7 -3 -9 4 -5 5 3 13 0 15 -6 4 -9 6 -10 6 -1 1 17
-16 25 -25 12z"/>
<path d="M3330 1961 c0 -6 4 -13 10 -16 6 -3 7 1 4 9 -7 18 -14 21 -14 7z"/>
<path d="M3310 1925 c0 -7 30 -13 34 -7 3 4 -4 9 -15 9 -10 1 -19 0 -19 -2z"/>
<path d="M759 1893 c-12 -16 -12 -17 2 -6 9 7 20 9 24 5 5 -4 5 -1 1 6 -9 16
-11 15 -27 -5z"/>
<path d="M3266 1896 c3 -8 13 -17 22 -21 13 -5 13 -2 -3 15 -21 24 -26 25 -19
6z"/>
<path d="M3376 1901 c-3 -5 2 -15 12 -22 15 -12 16 -12 5 2 -7 9 -10 19 -6 22
3 4 4 7 0 7 -3 0 -8 -4 -11 -9z"/>
<path d="M3196 1855 c-11 -8 -15 -15 -9 -15 6 0 16 7 23 15 16 19 11 19 -14 0z"/>
<path d="M3350 1860 c0 -5 5 -10 11 -10 5 0 7 5 4 10 -3 6 -8 10 -11 10 -2 0
-4 -4 -4 -10z"/>
<path d="M3253 1845 c0 -8 4 -12 9 -9 5 3 6 10 3 15 -9 13 -12 11 -12 -6z"/>
<path d="M796 1833 c-6 -14 -5 -15 5 -6 7 7 10 15 7 18 -3 3 -9 -2 -12 -12z"/>
<path d="M3220 1840 c-9 -6 -10 -10 -3 -10 6 0 15 5 18 10 8 12 4 12 -15 0z"/>
<path d="M3235 1809 c-4 -6 -5 -12 -2 -15 2 -3 7 2 10 11 7 17 1 20 -8 4z"/>
<path d="M3140 1800 c0 -5 7 -7 15 -4 8 4 15 8 15 10 0 2 -7 4 -15 4 -8 0 -15
-4 -15 -10z"/>
<path d="M3075 1790 c-3 -6 1 -7 9 -4 18 7 21 14 7 14 -6 0 -13 -4 -16 -10z"/>
<path d="M3110 1780 c0 -5 5 -10 10 -10 6 0 10 5 10 10 0 6 -4 10 -10 10 -5 0
-10 -4 -10 -10z"/>
<path d="M815 1760 c-3 -5 -1 -10 4 -10 6 0 11 5 11 10 0 6 -2 10 -4 10 -3 0
-8 -4 -11 -10z"/>
<path d="M3091 1753 c12 -15 12 -16 -4 -10 -11 4 -16 3 -12 -3 3 -6 1 -10 -6
-10 -7 0 -10 -3 -7 -6 12 -11 47 16 42 31 -4 8 -11 15 -16 15 -6 0 -4 -8 3
-17z"/>
<path d="M856 1737 c3 -10 9 -15 12 -12 3 3 0 11 -7 18 -10 9 -11 8 -5 -6z"/>
<path d="M3270 1743 c0 -6 8 -17 18 -24 16 -13 16 -13 2 6 -8 11 -16 22 -17
24 -2 2 -3 0 -3 -6z"/>
<path d="M790 1736 c0 -2 8 -10 18 -17 15 -13 16 -12 3 4 -13 16 -21 21 -21
13z"/>
<path d="M3135 1730 c-4 -6 -10 -8 -15 -5 -4 3 -7 -3 -6 -12 2 -9 8 -18 15
-19 7 -2 7 -1 1 3 -7 3 -5 12 6 24 9 10 14 19 11 19 -3 0 -9 -5 -12 -10z"/>
<path d="M3084 1675 c-4 -8 -10 -12 -15 -9 -11 7 -31 -40 -34 -83 -1 -17 -5
-35 -8 -40 -3 -5 3 -9 13 -9 10 0 16 5 13 10 -4 5 2 7 13 3 18 -7 18 -6 -1 10
-21 19 -23 31 -11 75 6 19 13 25 26 23 14 -3 17 1 13 12 -4 11 -2 14 5 9 7 -4
12 -2 12 3 0 16 -20 13 -26 -4z"/>
<path d="M3273 1675 c0 -8 4 -12 9 -9 5 3 6 10 3 15 -9 13 -12 11 -12 -6z"/>
<path d="M3346 1682 c-3 -5 1 -9 9 -9 8 0 12 4 9 9 -3 4 -7 8 -9 8 -2 0 -6 -4
-9 -8z"/>
<path d="M2896 1641 c-17 -18 -24 -31 -17 -35 11 -7 12 -6 15 17 1 6 9 11 18
9 12 -2 16 4 15 18 -1 11 -2 20 -2 20 -1 0 -14 -13 -29 -29z"/>
<path d="M3150 1655 c5 -6 8 -22 5 -35 -2 -12 -1 -20 3 -16 13 13 10 63 -4 63
-9 0 -11 -4 -4 -12z"/>
<path d="M847 1639 c7 -7 15 -10 18 -7 3 3 -2 9 -12 12 -14 6 -15 5 -6 -5z"/>
<path d="M3020 1635 c-7 -9 -8 -15 -2 -15 5 0 12 7 16 15 3 8 4 15 2 15 -2 0
-9 -7 -16 -15z"/>
<path d="M4493 1625 c0 -8 4 -12 9 -9 5 3 6 10 3 15 -9 13 -12 11 -12 -6z"/>
<path d="M3094 1618 c-4 -7 -4 -10 1 -6 4 4 14 0 22 -10 13 -15 13 -15 3 6
-12 25 -16 27 -26 10z"/>
<path d="M3996 1622 c-3 -4 4 -9 15 -9 23 -2 25 3 4 10 -8 4 -16 3 -19 -1z"/>
<path d="M4116 1622 c-3 -4 4 -9 15 -9 23 -2 25 3 4 10 -8 4 -16 3 -19 -1z"/>
<path d="M3211 1607 c-8 -10 -7 -14 2 -14 8 0 14 6 14 14 0 7 -1 13 -2 13 -2
0 -8 -6 -14 -13z"/>
<path d="M3922 1605 c15 -16 20 -17 30 -6 11 11 10 13 0 7 -7 -4 -21 -2 -30 5
-15 12 -15 11 0 -6z"/>
<path d="M3060 1598 c0 -6 3 -8 6 -5 4 3 16 2 28 -4 20 -10 20 -10 2 5 -24 19
-36 20 -36 4z"/>
<path d="M3575 1600 c-3 -5 -1 -10 4 -10 6 0 11 5 11 10 0 6 -2 10 -4 10 -3 0
-8 -4 -11 -10z"/>
<path d="M4050 1596 c7 -7 13 -7 20 0 6 6 3 10 -10 10 -13 0 -16 -4 -10 -10z"/>
<path d="M4210 1599 c0 -5 5 -7 10 -4 6 3 10 8 10 11 0 2 -4 4 -10 4 -5 0 -10
-5 -10 -11z"/>
<path d="M4335 1600 c3 -5 8 -10 11 -10 2 0 4 5 4 10 0 6 -5 10 -11 10 -5 0
-7 -4 -4 -10z"/>
<path d="M4375 1600 c-3 -5 -1 -10 4 -10 6 0 11 5 11 10 0 6 -2 10 -4 10 -3 0
-8 -4 -11 -10z"/>
<path d="M3833 1572 c-1 -22 0 -24 9 -8 6 10 6 22 2 26 -5 5 -10 -3 -11 -18z"/>
<path d="M833 1575 c0 -8 4 -12 9 -9 5 3 6 10 3 15 -9 13 -12 11 -12 -6z"/>
<path d="M2874 1574 c2 -14 25 -43 27 -33 0 2 2 13 4 24 3 15 -1 21 -14 22
-11 1 -18 -4 -17 -13z"/>
<path d="M3240 1580 c-8 -5 -10 -10 -5 -10 6 0 17 5 25 10 8 5 11 10 5 10 -5
0 -17 -5 -25 -10z"/>
<path d="M3346 1582 c-2 -4 4 -8 14 -8 10 0 16 4 14 8 -3 4 -9 8 -14 8 -5 0
-11 -4 -14 -8z"/>
<path d="M3706 1582 c-3 -5 1 -9 9 -9 8 0 15 4 15 9 0 4 -4 8 -9 8 -6 0 -12
-4 -15 -8z"/>
<path d="M4515 1581 c-3 -5 -2 -12 3 -15 5 -3 9 1 9 9 0 17 -3 19 -12 6z"/>
<path d="M4656 1581 c-3 -5 2 -15 12 -22 15 -12 16 -12 5 2 -7 9 -10 19 -6 22
3 4 4 7 0 7 -3 0 -8 -4 -11 -9z"/>
<path d="M4696 1582 c-2 -4 -1 -14 4 -22 7 -11 9 -9 7 8 -1 24 -3 26 -11 14z"/>
<path d="M3078 1567 c12 -7 19 -16 16 -20 -4 -4 -2 -7 4 -7 7 0 12 5 12 11 0
5 4 8 8 5 5 -3 9 1 9 9 0 10 -4 12 -12 5 -6 -5 -16 -5 -25 0 -8 6 -19 10 -25
9 -5 0 0 -5 13 -12z"/>
<path d="M3152 1571 c-11 -7 -10 -9 3 -14 9 -4 14 -3 10 2 -3 5 1 12 7 14 7 3
9 6 3 6 -5 0 -16 -3 -23 -8z"/>
<path d="M3198 1573 c7 -3 16 -2 19 1 4 3 -2 6 -13 5 -11 0 -14 -3 -6 -6z"/>
<path d="M3296 1565 c4 -8 11 -15 16 -15 6 0 5 6 -2 15 -7 8 -14 15 -16 15 -2
0 -1 -7 2 -15z"/>
<path d="M3410 1576 c0 -2 8 -10 18 -17 15 -13 16 -12 3 4 -13 16 -21 21 -21
13z"/>
<path d="M3535 1560 c1 -11 5 -23 10 -27 4 -5 5 -2 0 6 -6 10 -2 12 16 7 13
-3 18 -3 11 0 -6 3 -9 11 -5 17 3 7 3 9 -2 5 -4 -4 -13 -3 -20 2 -8 7 -11 4
-10 -10z"/>
<path d="M3615 1570 c-4 -6 -10 -8 -14 -6 -4 3 -8 -1 -8 -9 0 -21 10 -19 25 5
7 11 10 20 8 20 -3 0 -8 -5 -11 -10z"/>
<path d="M3975 1570 c-4 -6 -12 -8 -18 -4 -7 3 -4 -1 5 -9 10 -8 16 -17 13
-20 -3 -4 -2 -5 2 -2 6 5 13 45 7 45 -2 0 -6 -5 -9 -10z"/>
<path d="M4015 1560 c1 -11 5 -23 10 -27 4 -5 5 -2 0 6 -6 10 -2 12 16 7 13
-3 18 -3 11 0 -6 3 -9 11 -5 17 3 7 3 9 -2 5 -4 -4 -13 -3 -20 2 -8 7 -11 4
-10 -10z"/>
<path d="M4095 1570 c-4 -6 -10 -8 -14 -6 -4 3 -8 -1 -8 -9 0 -21 10 -19 25 5
7 11 10 20 8 20 -3 0 -8 -5 -11 -10z"/>
<path d="M4169 1563 c-13 -16 -12 -17 4 -4 16 13 21 21 13 21 -2 0 -10 -8 -17
-17z"/>
<path d="M4335 1560 c1 -11 5 -23 10 -27 4 -5 5 -2 0 6 -6 10 -2 12 16 7 13
-3 18 -3 11 0 -6 3 -9 11 -5 17 3 7 3 9 -2 5 -4 -4 -13 -3 -20 2 -8 7 -11 4
-10 -10z"/>
<path d="M4415 1570 c-4 -6 -10 -8 -14 -6 -4 3 -8 -1 -8 -9 0 -21 10 -19 25 5
7 11 10 20 8 20 -3 0 -8 -5 -11 -10z"/>
<path d="M3270 1561 c0 -6 4 -13 10 -16 6 -3 7 1 4 9 -7 18 -14 21 -14 7z"/>
<path d="M3774 1554 c1 -8 4 -15 7 -16 2 -2 3 -1 2 1 -2 2 2 9 7 16 7 8 5 12
-4 12 -8 0 -13 -6 -12 -13z"/>
<path d="M3907 1553 c5 -12 3 -14 -7 -8 -8 5 -11 4 -6 -3 4 -6 13 -9 22 -5 11
4 12 9 3 19 -15 19 -20 18 -12 -3z"/>
<path d="M855 1550 c-3 -6 1 -7 9 -4 18 7 21 14 7 14 -6 0 -13 -4 -16 -10z"/>
<path d="M3184 1544 c-18 -14 -18 -15 4 -4 12 6 22 13 22 15 0 8 -5 6 -26 -11z"/>
<path d="M3135 1540 c-3 -5 -1 -10 4 -10 6 0 11 5 11 10 0 6 -2 10 -4 10 -3 0
-8 -4 -11 -10z"/>
<path d="M3216 1542 c-2 -4 4 -8 15 -8 10 0 19 4 19 8 0 4 -6 8 -14 8 -8 0
-17 -4 -20 -8z"/>
<path d="M3417 1539 c7 -7 15 -10 18 -7 3 3 -2 9 -12 12 -14 6 -15 5 -6 -5z"/>
<path d="M3650 1540 c-9 -6 -10 -10 -3 -10 6 0 15 5 18 10 8 12 4 12 -15 0z"/>
<path d="M4130 1540 c-9 -6 -10 -10 -3 -10 6 0 15 5 18 10 8 12 4 12 -15 0z"/>
<path d="M4612 1545 c3 -3 16 -8 28 -10 12 -2 20 -1 16 2 -4 4 -16 8 -28 10
-12 2 -19 1 -16 -2z"/>
<path d="M856 1458 c5 -7 2 -9 -8 -6 -8 4 -15 0 -15 -7 0 -10 5 -11 19 -4 16
9 17 29 2 29 -3 0 -2 -5 2 -12z"/>
<path d="M4893 1415 c0 -8 4 -12 9 -9 5 3 6 10 3 15 -9 13 -12 11 -12 -6z"/>
<path d="M850 1406 c0 -2 7 -7 16 -10 8 -3 12 -2 9 4 -6 10 -25 14 -25 6z"/>
<path d="M839 1373 c-12 -16 -12 -17 2 -6 9 7 20 9 24 5 5 -4 5 -1 1 6 -9 16
-11 15 -27 -5z"/>
<path d="M4890 1380 c0 -5 5 -10 11 -10 5 0 7 5 4 10 -3 6 -8 10 -11 10 -2 0
-4 -4 -4 -10z"/>
<path d="M4930 1361 c0 -6 4 -13 10 -16 6 -3 7 1 4 9 -7 18 -14 21 -14 7z"/>
<path d="M759 1333 c-12 -16 -12 -17 2 -6 9 7 20 9 24 5 5 -4 5 -1 1 6 -9 16
-11 15 -27 -5z"/>
<path d="M816 1321 c9 -9 34 -9 34 -1 0 5 -9 8 -20 7 -10 -1 -17 -3 -14 -6z"/>
<path d="M4930 1300 c0 -5 5 -10 11 -10 5 0 7 5 4 10 -3 6 -8 10 -11 10 -2 0
-4 -4 -4 -10z"/>
<path d="M844 1279 c-3 -6 -2 -15 4 -21 6 -6 12 -6 17 3 6 8 4 10 -5 4 -10 -6
-12 -4 -7 8 7 19 2 23 -9 6z"/>
<path d="M4892 1240 c0 -14 2 -19 5 -12 2 6 2 18 0 25 -3 6 -5 1 -5 -13z"/>
<path d="M860 1240 c-9 -6 -10 -10 -3 -10 6 0 15 5 18 10 8 12 4 12 -15 0z"/>
<path d="M4920 1220 c-12 -7 -10 -9 7 -7 12 0 19 5 17 9 -6 10 -6 10 -24 -2z"/>
<path d="M759 1173 c-12 -16 -12 -17 2 -6 9 7 20 9 24 5 5 -4 5 -1 1 6 -9 16
-11 15 -27 -5z"/>
<path d="M815 1119 c-3 -4 2 -6 10 -5 21 3 28 13 10 13 -9 0 -18 -4 -20 -8z"/>
<path d="M4913 1094 c0 -9 4 -11 12 -4 7 5 14 9 16 7 2 -1 3 0 1 2 -7 11 -29
7 -29 -5z"/>
<path d="M830 1078 c0 -4 7 -8 15 -8 8 0 15 4 15 8 0 5 -7 9 -15 9 -8 0 -15
-4 -15 -9z"/>
<path d="M810 1041 c0 -6 4 -12 8 -15 5 -3 9 1 9 9 0 8 -4 15 -9 15 -4 0 -8
-4 -8 -9z"/>
<path d="M4905 1039 c-3 -4 2 -6 10 -5 21 3 28 13 10 13 -9 0 -18 -4 -20 -8z"/>
<path d="M815 1000 c-3 -5 -1 -10 4 -10 6 0 11 5 11 10 0 6 -2 10 -4 10 -3 0
-8 -4 -11 -10z"/>
<path d="M4976 998 c3 -5 10 -6 15 -3 13 9 11 12 -6 12 -8 0 -12 -4 -9 -9z"/>
<path d="M790 976 c0 -2 8 -10 18 -17 15 -13 16 -12 3 4 -13 16 -21 21 -21 13z"/>
<path d="M832 965 c3 -3 16 -8 28 -10 12 -2 20 -1 16 2 -4 4 -16 8 -28 10 -12
2 -19 1 -16 -2z"/>
<path d="M4894 958 c-4 -5 -3 -12 0 -15 3 -4 6 -1 6 6 0 7 4 10 9 6 5 -3 12
-2 15 3 3 5 -2 9 -10 9 -8 0 -17 -4 -20 -9z"/>
<path d="M833 935 c0 -8 4 -12 9 -9 5 3 6 10 3 15 -9 13 -12 11 -12 -6z"/>
<path d="M855 910 c-3 -6 1 -7 9 -4 18 7 21 14 7 14 -6 0 -13 -4 -16 -10z"/>
<path d="M4906 879 c4 -8 30 -6 38 2 3 3 -5 5 -19 5 -13 0 -22 -3 -19 -7z"/>
<path d="M4913 825 c0 -8 4 -12 9 -9 5 3 6 10 3 15 -9 13 -12 11 -12 -6z"/>
<path d="M856 818 c5 -7 2 -9 -8 -6 -8 4 -15 0 -15 -7 0 -10 5 -11 19 -4 16 9
17 29 2 29 -3 0 -2 -5 2 -12z"/>
<path d="M850 766 c0 -2 7 -7 16 -10 8 -3 12 -2 9 4 -6 10 -25 14 -25 6z"/>
<path d="M4880 756 c0 -2 7 -7 16 -10 8 -3 12 -2 9 4 -6 10 -25 14 -25 6z"/>
<path d="M4953 745 c0 -8 4 -12 9 -9 5 3 6 10 3 15 -9 13 -12 11 -12 -6z"/>
<path d="M839 733 c-12 -16 -12 -17 2 -6 9 7 20 9 24 5 5 -4 5 -1 1 6 -9 16
-11 15 -27 -5z"/>
<path d="M759 693 c-12 -16 -12 -17 2 -6 9 7 20 9 24 5 5 -4 5 -1 1 6 -9 16
-11 15 -27 -5z"/>
<path d="M816 681 c9 -9 34 -9 34 -1 0 5 -9 8 -20 7 -10 -1 -17 -3 -14 -6z"/>
<path d="M4895 679 c-4 -6 -4 -13 -1 -16 3 -4 6 -1 6 6 0 7 5 9 12 5 7 -4 8
-3 4 4 -9 15 -13 15 -21 1z"/>
<path d="M856 637 c3 -10 9 -15 12 -12 3 3 0 11 -7 18 -10 9 -11 8 -5 -6z"/>
<path d="M776 602 c-2 -4 -1 -14 4 -22 7 -11 9 -9 7 8 -1 24 -3 26 -11 14z"/>
<path d="M855 580 c6 -10 4 -12 -10 -6 -16 6 -16 4 -4 -11 7 -10 14 -19 15
-21 1 -1 4 6 7 18 3 11 0 23 -5 27 -7 4 -8 1 -3 -7z"/>
<path d="M834 523 c3 -4 2 -11 -4 -17 -6 -8 -2 -12 13 -13 17 -2 19 0 7 7 -14
9 -6 15 15 10 6 -1 6 2 2 6 -4 4 -15 9 -23 10 -9 1 -13 0 -10 -3z"/>
<path d="M813 455 c-4 -5 -2 -7 2 -2 5 4 16 0 26 -9 11 -10 19 -12 24 -4 3 6
3 10 -2 9 -20 -3 -27 2 -13 11 11 7 10 9 -8 7 -13 -1 -26 -6 -29 -12z"/>
<path d="M779 448 c-5 -18 -6 -38 -1 -34 7 8 12 36 6 36 -2 0 -4 -1 -5 -2z"/>
<path d="M4913 409 c-2 -23 3 -25 10 -4 4 8 3 16 -1 19 -4 3 -9 -4 -9 -15z"/>
<path d="M850 412 c0 -8 -5 -10 -12 -6 -7 4 -10 4 -6 -1 4 -4 3 -13 -2 -20 -7
-8 -5 -12 5 -12 8 0 12 4 9 8 -2 4 0 10 6 14 5 3 10 1 10 -6 0 -7 3 -10 6 -6
3 3 1 14 -5 24 -6 11 -11 13 -11 5z"/>
<path d="M857 334 c4 -11 3 -15 -5 -10 -6 3 -13 2 -16 -3 -4 -5 2 -8 11 -7 20
3 28 21 14 31 -7 4 -8 0 -4 -11z"/>
<path d="M4896 287 c3 -10 9 -15 12 -12 3 3 0 11 -7 18 -10 9 -11 8 -5 -6z"/>
<path d="M830 281 c0 -6 4 -13 10 -16 6 -3 7 1 4 9 -7 18 -14 21 -14 7z"/>
<path d="M855 250 c-4 -6 -11 -8 -16 -5 -5 4 -9 1 -9 -4 0 -16 16 -13 30 4 7
8 10 15 7 15 -3 0 -9 -5 -12 -10z"/>
<path d="M759 233 c-13 -16 -12 -17 4 -4 16 13 21 21 13 21 -2 0 -10 -8 -17
-17z"/>
<path d="M4935 241 c-3 -5 -2 -12 3 -15 5 -3 9 1 9 9 0 17 -3 19 -12 6z"/>
<path d="M4893 95 c0 -8 4 -12 9 -9 5 3 6 10 3 15 -9 13 -12 11 -12 -6z"/>
<path d="M895 60 c3 -5 8 -10 11 -10 2 0 4 5 4 10 0 6 -5 10 -11 10 -5 0 -7
-4 -4 -10z"/>
<path d="M4875 51 c-3 -5 -2 -12 3 -15 5 -3 9 1 9 9 0 17 -3 19 -12 6z"/>
<path d="M4830 41 c0 -6 4 -13 10 -16 6 -3 7 1 4 9 -7 18 -14 21 -14 7z"/>
</g>
</svg>
